<svg width="20" height="20" viewBox="0 0 20 20" fill="none" xmlns="http://www.w3.org/2000/svg">
<path fill-rule="evenodd" clip-rule="evenodd" d="M3.92566 1.9019C5.13162 1.09611 6.54944 0.666016 7.99984 0.666016C8.96287 0.666016 9.91646 0.855698 10.8062 1.22423C11.6959 1.59277 12.5043 2.13294 13.1853 2.8139C13.8663 3.49486 14.4064 4.30328 14.775 5.193C15.1435 6.08272 15.3332 7.03632 15.3332 7.99935C15.3332 9.44974 14.9031 10.8676 14.0973 12.0735C13.2915 13.2795 12.1462 14.2194 10.8062 14.7745C9.46619 15.3295 7.9917 15.4747 6.56918 15.1918C5.14665 14.9088 3.83998 14.2104 2.81439 13.1848C1.78881 12.1592 1.09037 10.8525 0.807415 9.43001C0.524457 8.00748 0.669681 6.53299 1.22472 5.193C1.77977 3.85301 2.7197 2.7077 3.92566 1.9019ZM7.99984 1.60949C6.73604 1.60949 5.50063 1.98424 4.44982 2.68637C3.39901 3.3885 2.58001 4.38646 2.09638 5.55405C1.61274 6.72165 1.4862 8.00644 1.73276 9.24595C1.97931 10.4855 2.58789 11.624 3.48152 12.5177C4.37516 13.4113 5.51373 14.0199 6.75324 14.2664C7.99275 14.513 9.27754 14.3864 10.4451 13.9028C11.6127 13.4192 12.6107 12.6002 13.3128 11.5494C14.0149 10.4986 14.3897 9.26314 14.3897 7.99935C14.3897 7.16022 14.2244 6.32931 13.9033 5.55405C13.5822 4.7788 13.1115 4.07439 12.5182 3.48103C11.9248 2.88768 11.2204 2.41701 10.4451 2.09588C9.66988 1.77476 8.83897 1.60949 7.99984 1.60949Z" fill="#0B1736"/>
<path fill-rule="evenodd" clip-rule="evenodd" d="M7.72235 4.69467C7.88774 4.57443 8.11176 4.57443 8.27715 4.69467L11.3359 6.91844C11.501 7.03847 11.5702 7.25108 11.5073 7.44529L10.3424 11.0438C10.2794 11.2384 10.0981 11.3703 9.89355 11.3703H6.10595C5.9014 11.3703 5.72015 11.2384 5.65715 11.0438L4.4922 7.44529C4.42933 7.25108 4.4985 7.03847 4.66361 6.91844L7.72235 4.69467ZM5.49521 7.4803L6.44908 10.4268H9.55043L10.5043 7.4803L7.99975 5.65946L5.49521 7.4803Z" fill="#0B1736"/>
<path fill-rule="evenodd" clip-rule="evenodd" d="M4.98564 1.39269C5.13126 1.17665 5.42444 1.11956 5.64047 1.26518L8.00008 2.85562L10.3597 1.26518C10.5757 1.11956 10.8689 1.17665 11.0145 1.39269C11.1601 1.60873 11.103 1.90191 10.887 2.04753L8.26374 3.81568C8.10438 3.9231 7.89578 3.9231 7.73642 3.81568L5.11315 2.04753C4.89711 1.90191 4.84002 1.60873 4.98564 1.39269Z" fill="#0B1736"/>
<path fill-rule="evenodd" clip-rule="evenodd" d="M14.3344 11.4852C14.3739 11.7427 14.1972 11.9835 13.9397 12.023L11.2045 12.4431L10.0083 14.8847C9.89364 15.1186 9.61105 15.2154 9.37709 15.1007C9.14313 14.9861 9.04638 14.7035 9.16101 14.4696L10.4656 11.8067C10.5336 11.668 10.665 11.5714 10.8177 11.5479L13.7965 11.0905C14.054 11.0509 14.2948 11.2276 14.3344 11.4852Z" fill="#0B1736"/>
<path fill-rule="evenodd" clip-rule="evenodd" d="M13.2687 3.05424C13.5263 3.09337 13.7034 3.33389 13.6642 3.59147L13.2519 6.30649L15.1727 8.21944C15.3573 8.40328 15.3579 8.70197 15.174 8.88657C14.9902 9.07117 14.6915 9.07178 14.5069 8.88794L12.4167 6.80628C12.3102 6.70022 12.2606 6.54978 12.2832 6.40119L12.7315 3.44979C12.7706 3.19221 13.0111 3.01512 13.2687 3.05424Z" fill="#0B1736"/>
<path fill-rule="evenodd" clip-rule="evenodd" d="M7.99981 2.95312C8.26034 2.95312 8.47155 3.16433 8.47155 3.42486V5.07652C8.47155 5.33705 8.26034 5.54826 7.99981 5.54826C7.73928 5.54826 7.52808 5.33705 7.52808 5.07652V3.42486C7.52808 3.16433 7.73928 2.95312 7.99981 2.95312Z" fill="#0B1736"/>
<path fill-rule="evenodd" clip-rule="evenodd" d="M13.1733 6.26528C13.2879 6.49925 13.1912 6.78183 12.9572 6.89645L11.2665 7.72472C11.0326 7.83934 10.75 7.74259 10.6354 7.50862C10.5208 7.27466 10.6175 6.99208 10.8515 6.87746L12.5422 6.04919C12.7761 5.93457 13.0587 6.03132 13.1733 6.26528Z" fill="#0B1736"/>
<path fill-rule="evenodd" clip-rule="evenodd" d="M2.73176 3.05424C2.98934 3.01512 3.22987 3.19221 3.26899 3.44979L3.71728 6.40119C3.73985 6.54978 3.69027 6.70022 3.58378 6.80628L1.49358 8.88794C1.30898 9.07178 1.0103 9.07117 0.826451 8.88657C0.642604 8.70197 0.643216 8.40328 0.827816 8.21944L2.74861 6.30649L2.33622 3.59147C2.29709 3.33389 2.47419 3.09337 2.73176 3.05424Z" fill="#0B1736"/>
<path fill-rule="evenodd" clip-rule="evenodd" d="M2.82629 6.26528C2.94091 6.03132 3.22349 5.93457 3.45745 6.04919L5.14815 6.87746C5.38212 6.99208 5.47886 7.27466 5.36425 7.50862C5.24963 7.74259 4.96704 7.83934 4.73308 7.72472L3.04238 6.89645C2.80842 6.78183 2.71167 6.49925 2.82629 6.26528Z" fill="#0B1736"/>
<path fill-rule="evenodd" clip-rule="evenodd" d="M9.57983 10.5467C9.77412 10.3731 10.0723 10.3899 10.2459 10.5842L11.2419 11.6992C11.4155 11.8935 11.3987 12.1917 11.2044 12.3652C11.0101 12.5388 10.7119 12.522 10.5383 12.3277L9.5423 11.2128C9.36873 11.0185 9.38553 10.7203 9.57983 10.5467Z" fill="#0B1736"/>
<path fill-rule="evenodd" clip-rule="evenodd" d="M1.66496 11.4852C1.7045 11.2276 1.94531 11.0509 2.20283 11.0905L5.18167 11.5479C5.33429 11.5714 5.46577 11.668 5.5337 11.8067L6.83832 14.4696C6.95294 14.7035 6.8562 14.9861 6.62224 15.1007C6.38827 15.2154 6.10569 15.1186 5.99107 14.8847L4.79488 12.4431L2.05962 12.023C1.80211 11.9835 1.62541 11.7427 1.66496 11.4852Z" fill="#0B1736"/>
<path fill-rule="evenodd" clip-rule="evenodd" d="M6.41995 10.5467C6.61425 10.7203 6.63105 11.0185 6.45748 11.2128L5.46148 12.3277C5.28791 12.522 4.9897 12.5388 4.7954 12.3652C4.60111 12.1917 4.58431 11.8935 4.75788 11.6992L5.75388 10.5842C5.92744 10.3899 6.22566 10.3731 6.41995 10.5467Z" fill="#0B1736"/>
</svg>
