<svg width="20" height="20" viewBox="0 0 20 20" fill="none" xmlns="http://www.w3.org/2000/svg">
<path fill-rule="evenodd" clip-rule="evenodd" d="M4.94995 0.25C5.36416 0.25 5.69995 0.585786 5.69995 1V2.5H14.7V1C14.7 0.585786 15.0357 0.25 15.45 0.25C15.8642 0.25 16.2 0.585786 16.2 1V2.5H16.95C18.6068 2.5 19.95 3.84315 19.95 5.5V16.75C19.95 18.4069 18.6068 19.75 16.95 19.75H3.44995C1.7931 19.75 0.449951 18.4069 0.449951 16.75V5.5C0.449951 3.84315 1.7931 2.5 3.44995 2.5H4.19995V1C4.19995 0.585786 4.53574 0.25 4.94995 0.25ZM18.45 9.25C18.45 8.42157 17.7784 7.75 16.95 7.75H3.44995C2.62152 7.75 1.94995 8.42157 1.94995 9.25V16.75C1.94995 17.5784 2.62152 18.25 3.44995 18.25H16.95C17.7784 18.25 18.45 17.5784 18.45 16.75V9.25Z" fill="#64708D"/>
</svg>
