<svg width="30" height="30" viewBox="0 0 30 30" fill="none" xmlns="http://www.w3.org/2000/svg">
<path d="M19.6773 24.5452V23.0989C19.6745 22.9653 19.6312 22.8361 19.5536 22.7295C19.4761 22.623 19.3681 22.5445 19.2452 22.5054C18.3697 22.2181 17.61 21.6386 17.084 20.8568C16.5581 20.075 16.2952 19.1346 16.3364 18.1817C16.3364 13.7979 21.5158 19.2751 21.6818 6.10849C21.6757 5.93009 21.6021 5.76138 21.477 5.63899C21.3519 5.5166 21.1854 5.45042 21.0136 5.45479H8.98653C8.81475 5.45042 8.64824 5.5166 8.52315 5.63899C8.39805 5.76138 8.32447 5.93009 8.31836 6.10849C8.48317 19.2751 13.6637 13.7979 13.6637 18.1817C13.7057 19.1357 13.4431 20.0773 12.9166 20.8601C12.3901 21.6429 11.6294 22.223 10.7527 22.51C10.6308 22.5492 10.5238 22.627 10.4467 22.7327C10.3696 22.8383 10.3263 22.9664 10.3229 23.0989V24.5452H19.6773Z" stroke="#0B1736" stroke-width="1.65" stroke-linecap="round" stroke-linejoin="round"/>
<path d="M8.17676 7.36403H5.17085C5.07962 7.36147 4.98886 7.37756 4.90444 7.41127C4.82002 7.44499 4.74382 7.49557 4.6808 7.55974C4.61777 7.62391 4.56931 7.70023 4.53857 7.78377C4.50782 7.86731 4.49548 7.9562 4.50233 8.04467C4.66155 9.67419 5.44312 13.6599 9.27313 13.5666" stroke="#0B1736" stroke-width="1.65" stroke-linecap="round" stroke-linejoin="round"/>
<path d="M21.8072 7.36397H24.8451C24.9345 7.36173 25.0234 7.37807 25.1061 7.41195C25.1888 7.44583 25.2633 7.49649 25.3249 7.56065C25.3865 7.62482 25.4338 7.70106 25.4638 7.78444C25.4937 7.86782 25.5057 7.95649 25.4988 8.04472C25.341 9.6863 24.563 13.7176 20.728 13.5639" stroke="#0B1736" stroke-width="1.65" stroke-linecap="round" stroke-linejoin="round"/>
</svg>
