<svg width="30" height="30" viewBox="0 0 30 30" fill="none" xmlns="http://www.w3.org/2000/svg">
<path d="M15.8925 8.65707C17.429 8.65707 18.6746 7.41146 18.6746 5.87492C18.6746 4.33838 17.429 3.09277 15.8925 3.09277C14.356 3.09277 13.1104 4.33838 13.1104 5.87492C13.1104 7.41146 14.356 8.65707 15.8925 8.65707Z" stroke="#0B1736" stroke-width="1.65" stroke-linecap="round" stroke-linejoin="round"/>
<path d="M21.4468 11.82H18.6224C18.056 11.8162 17.4943 11.716 16.9615 11.5238L13.788 10.3496C12.1851 9.74599 10.4662 9.51331 8.76051 9.66904C7.0548 9.82477 5.40652 10.3649 3.9394 11.2488C3.73358 11.3408 3.54972 11.4755 3.40006 11.6441C3.25041 11.8127 3.1384 12.0113 3.07149 12.2266C3.00459 12.4418 2.98432 12.6689 3.01205 12.8926C3.03977 13.1164 3.11485 13.3316 3.23228 13.524C3.34971 13.7165 3.5068 13.8817 3.69309 14.0087C3.87937 14.1356 4.09057 14.2214 4.31261 14.2604C4.53466 14.2994 4.76246 14.2905 4.98084 14.2346C5.19921 14.1786 5.40315 14.0767 5.57907 13.9357C7.28882 12.8939 9.32204 12.5174 11.2915 12.8779L7.78998 19.7539H4.78568C4.36484 19.7539 3.96124 19.9211 3.66366 20.2187C3.36608 20.5162 3.1989 20.9198 3.1989 21.3407C3.1989 21.7615 3.36608 22.1651 3.66366 22.4627C3.96124 22.7603 4.36484 22.9275 4.78568 22.9275H8.75262C9.0431 22.9271 9.32791 22.847 9.576 22.6959C9.82409 22.5448 10.0259 22.3285 10.1596 22.0706L11.302 19.8703L14.592 21.5734L15.0997 25.5086C15.153 25.9295 15.3713 26.3119 15.7066 26.5718C16.0419 26.8317 16.4667 26.9477 16.8875 26.8944C17.3083 26.8411 17.6908 26.6228 17.9506 26.2875C18.2105 25.9522 18.3266 25.5275 18.2733 25.1066L17.7549 21.1714C17.6888 20.6625 17.5003 20.1772 17.2055 19.7571C16.9108 19.3371 16.5185 18.9947 16.0624 18.7595L12.7619 17.1093L14.3698 13.9357L15.8508 14.4964C16.7379 14.8252 17.6763 14.9935 18.6224 14.9936H21.4468C21.8677 14.9936 22.2713 14.8264 22.5689 14.5288C22.8664 14.2312 23.0336 13.8276 23.0336 13.4068C23.0336 12.986 22.8664 12.5824 22.5689 12.2848C22.2713 11.9872 21.8677 11.82 21.4468 11.82Z" stroke="#0B1736" stroke-width="1.65" stroke-linecap="round" stroke-linejoin="round"/>
<path d="M24.6199 26.8944C25.9344 26.8944 27.0001 25.8287 27.0001 24.5142C27.0001 23.1997 25.9344 22.134 24.6199 22.134C23.3054 22.134 22.2397 23.1997 22.2397 24.5142C22.2397 25.8287 23.3054 26.8944 24.6199 26.8944Z" stroke="#0B1736" stroke-width="1.65" stroke-linecap="round" stroke-linejoin="round"/>
</svg>
