<svg width="22" height="20" viewBox="0 0 22 20" fill="none" xmlns="http://www.w3.org/2000/svg">
<path d="M10.8696 1.84076C11.1625 1.54787 11.6373 1.54787 11.9302 1.84076L20.6196 10.5301C20.9125 10.823 21.3873 10.823 21.6802 10.5301C21.9731 10.2372 21.9731 9.76234 21.6802 9.46944L12.9909 0.780103C12.1122 -0.0985772 10.6876 -0.0985751 9.80891 0.780104L1.11957 9.46944C0.826679 9.76234 0.826679 10.2372 1.11957 10.5301C1.41247 10.823 1.88734 10.823 2.18023 10.5301L10.8696 1.84076Z" fill="#0B1736"/>
<path d="M11.3999 3.43176L19.5589 11.5908C19.5886 11.6205 19.619 11.6492 19.6499 11.6769V17.8748C19.6499 18.9103 18.8104 19.7498 17.7749 19.7498H14.3999C13.9857 19.7498 13.6499 19.414 13.6499 18.9998V14.4998C13.6499 14.0856 13.3141 13.7498 12.8999 13.7498H9.8999C9.48569 13.7498 9.1499 14.0856 9.1499 14.4998V18.9998C9.1499 19.414 8.81412 19.7498 8.3999 19.7498H5.0249C3.98937 19.7498 3.1499 18.9103 3.1499 17.8748V11.6769C3.18083 11.6492 3.21117 11.6205 3.24089 11.5908L11.3999 3.43176Z" fill="#0B1736"/>
</svg>
