<svg width="28" height="28" viewBox="0 0 28 28" fill="none" xmlns="http://www.w3.org/2000/svg">
<path d="M4.84104 15.4454L1.98232 18.4049C1.87392 18.5189 1.81348 18.6702 1.81348 18.8276C1.81348 18.9849 1.87392 19.1362 1.98232 19.2502L8.52009 26.0166C8.57274 26.072 8.6361 26.1162 8.70634 26.1463C8.77657 26.1765 8.8522 26.192 8.92864 26.192C9.00507 26.192 9.0807 26.1765 9.15094 26.1463C9.22117 26.1162 9.28454 26.072 9.33718 26.0166L12.2425 23.0105" stroke="#0B1736" stroke-width="1.75" stroke-linecap="round" stroke-linejoin="round"/>
<path d="M14.2388 7.40946L16.6911 4.8715C17.0161 4.52917 17.1973 4.07512 17.1973 3.60307C17.1973 3.13102 17.0161 2.67698 16.6911 2.33464C16.5329 2.16864 16.3427 2.0365 16.1319 1.94621C15.9211 1.85591 15.6942 1.80936 15.4649 1.80936C15.2356 1.80936 15.0087 1.85591 14.798 1.94621C14.5872 2.0365 14.397 2.16864 14.2388 2.33464L6.88391 9.94632C4.80869 12.0942 4.34704 13.6492 4.84011 15.4449L11.7875 22.6339C13.4217 24.3255 16.6012 23.1974 19.1424 22.6339C20.6646 22.2923 22.1676 21.8702 23.645 21.3693C24.8706 20.9466 25.8958 20.1404 25.8123 18.8205C25.798 18.5124 25.723 18.2101 25.5916 17.931C25.4601 17.652 25.2748 17.4017 25.0463 17.1944C24.8179 16.9872 24.5507 16.8272 24.2602 16.7235C23.9697 16.6198 23.6616 16.5745 23.3535 16.5903L19.5607 17.1375L25.6812 10.7927C26.0066 10.4503 26.188 9.996 26.188 9.52369C26.188 9.05138 26.0066 8.59711 25.6812 8.25472C25.523 8.08886 25.3327 7.95684 25.1219 7.86663C24.9112 7.77643 24.6843 7.72992 24.455 7.72992C24.2258 7.72992 23.9989 7.77643 23.7882 7.86663C23.5774 7.95684 23.3871 8.08886 23.2289 8.25472" stroke="#0B1736" stroke-width="1.75" stroke-linecap="round" stroke-linejoin="round"/>
<path d="M21.3241 10.2274L24.0463 7.4099C24.3716 7.06751 24.553 6.61324 24.553 6.14092C24.553 5.66861 24.3716 5.21434 24.0463 4.87195C23.8882 4.70599 23.698 4.57386 23.4873 4.48358C23.2767 4.3933 23.0498 4.34675 22.8206 4.34675C22.5914 4.34675 22.3646 4.3933 22.1539 4.48358C21.9432 4.57386 21.7531 4.70599 21.595 4.87195L20.7779 5.71829C21.1033 5.3759 21.2847 4.92163 21.2847 4.44932C21.2847 3.97701 21.1033 3.52274 20.7779 3.18034C20.6197 3.01449 20.4294 2.88246 20.2186 2.79226C20.0079 2.70206 19.781 2.65555 19.5517 2.65555C19.3225 2.65555 19.0956 2.70206 18.8849 2.79226C18.6741 2.88246 18.4838 3.01449 18.3256 3.18034L16.6914 4.87195" stroke="#0B1736" stroke-width="1.75" stroke-linecap="round" stroke-linejoin="round"/>
<path d="M20.7778 5.71793L18.0684 8.53791" stroke="#0B1736" stroke-width="1.75" stroke-linecap="round" stroke-linejoin="round"/>
</svg>
