<svg width="24" height="24" viewBox="0 0 24 24" fill="none" xmlns="http://www.w3.org/2000/svg">
<path fill-rule="evenodd" clip-rule="evenodd" d="M15.7409 14.0172C14.7896 14.0172 14.0185 14.7883 14.0185 15.7395C14.0185 16.6908 14.7896 17.4619 15.7409 17.4619C16.6921 17.4619 17.4632 16.6908 17.4632 15.7395C17.4632 14.7883 16.6921 14.0172 15.7409 14.0172ZM12.4746 15.7395C12.4746 13.9356 13.937 12.4733 15.7409 12.4733C17.5448 12.4733 19.0071 13.9356 19.0071 15.7395C19.0071 17.5434 17.5448 19.0058 15.7409 19.0058C13.937 19.0058 12.4746 17.5434 12.4746 15.7395Z" fill="#0B1736"/>
<path fill-rule="evenodd" clip-rule="evenodd" d="M0.520291 8.00282C0.85217 7.67094 1.30229 7.4845 1.77164 7.4845H8.99617C9.46789 7.4845 9.9203 7.67189 10.2539 8.00545C10.5874 8.33901 10.7748 8.79142 10.7748 9.26315V9.5026C10.7748 9.56248 10.7986 9.61991 10.8409 9.66225C10.8833 9.70459 10.9407 9.72838 11.0006 9.72838H13.7443C13.8042 9.72838 13.8617 9.70459 13.904 9.66225C13.9463 9.61991 13.9701 9.56248 13.9701 9.5026V8.25644C13.9701 7.83011 14.3157 7.4845 14.7421 7.4845H15.7398C16.9703 7.48501 18.1855 7.76035 19.296 8.29042C20.4065 8.82048 21.3846 9.59188 22.1588 10.5483C22.9331 11.5047 23.484 12.6219 23.7712 13.8185C24.0583 15.014 24.0748 16.2586 23.8198 17.4613C23.5582 18.7378 22.9944 19.933 22.1759 20.9468C21.357 21.961 20.307 22.7641 19.1139 23.2888C18.0707 23.752 16.943 23.9941 15.8016 23.9999C14.6598 24.0058 13.5292 23.7751 12.4809 23.3224C11.4327 22.8696 10.4896 22.2047 9.71107 21.3694C8.93254 20.5342 8.33546 19.5467 7.95746 18.4693C7.91604 18.351 7.87587 18.2173 7.83239 18.0726C7.65106 17.469 7.40911 16.6636 6.7505 15.8891C5.98024 14.9833 4.56657 14.0739 1.76777 14.0599C1.3005 14.0571 0.852441 13.8703 0.522027 13.5399C0.191613 13.2094 0.0047591 12.7621 0.00198045 12.2948L0.00195312 12.2902L0.00196679 9.25417C0.00196679 8.78482 0.188413 8.3347 0.520291 8.00282ZM1.77164 9.02839C1.71176 9.02839 1.65433 9.05218 1.61199 9.09452C1.56965 9.13686 1.54586 9.19429 1.54586 9.25417V12.2871C1.54661 12.3476 1.57095 12.4054 1.61372 12.4482C1.65676 12.4912 1.71501 12.5156 1.77587 12.516C4.95123 12.532 6.82048 13.5881 7.92665 14.889C8.82493 15.9454 9.17297 17.1409 9.33984 17.7141C9.36978 17.817 9.39389 17.8998 9.41429 17.9582C9.72171 18.8344 10.2073 19.6375 10.8404 20.3168C11.4736 20.9961 12.2406 21.5368 13.0931 21.905C13.9456 22.2732 14.8651 22.4608 15.7937 22.4561C16.7223 22.4513 17.6398 22.2542 18.4885 21.8773L18.4912 21.8761C19.4589 21.4507 20.3106 20.7995 20.9747 19.977C21.6387 19.1545 22.0959 18.1847 22.3078 17.1491L22.309 17.1434C22.5169 16.1647 22.5036 15.1518 22.27 14.1789C22.0364 13.2059 21.5885 12.2974 20.9589 11.5197C20.3293 10.742 19.534 10.1147 18.631 9.68372C17.728 9.25275 16.7403 9.02886 15.7398 9.02839H15.514V9.5026C15.514 9.97195 15.3276 10.4221 14.9957 10.7539C14.6638 11.0858 14.2137 11.2723 13.7443 11.2723H11.0006C10.5313 11.2723 10.0811 11.0858 9.74925 10.7539C9.41738 10.4221 9.23093 9.97195 9.23093 9.5026V9.26315C9.23093 9.20088 9.20619 9.14117 9.16217 9.09715C9.11814 9.05312 9.05843 9.02839 8.99617 9.02839H1.77164Z" fill="#0B1736"/>
<path fill-rule="evenodd" clip-rule="evenodd" d="M6.21438 2.22189C6.51584 1.92042 7.00461 1.92042 7.30607 2.22189L9.55096 4.46677C9.85242 4.76823 9.85242 5.257 9.55096 5.55846C9.24949 5.85993 8.76072 5.85993 8.45926 5.55846L6.21438 3.31358C5.91292 3.01212 5.91292 2.52335 6.21438 2.22189Z" fill="#0B1736"/>
<path fill-rule="evenodd" clip-rule="evenodd" d="M18.2814 2.22189C18.5829 2.52335 18.5829 3.01212 18.2814 3.31358L16.0365 5.55846C15.7351 5.85993 15.2463 5.85993 14.9448 5.55846C14.6434 5.257 14.6434 4.76823 14.9448 4.46677L17.1897 2.22189C17.4912 1.92042 17.98 1.92042 18.2814 2.22189Z" fill="#0B1736"/>
<path fill-rule="evenodd" clip-rule="evenodd" d="M12.2466 0.00012207C12.6729 0.00012207 13.0185 0.345734 13.0185 0.772068V4.26411C13.0185 4.69044 12.6729 5.03605 12.2466 5.03605C11.8202 5.03605 11.4746 4.69044 11.4746 4.26411V0.772068C11.4746 0.345734 11.8202 0.00012207 12.2466 0.00012207Z" fill="#0B1736"/>
</svg>
