<svg width="7" height="11" viewBox="0 0 7 11" fill="none" xmlns="http://www.w3.org/2000/svg">
<path fill-rule="evenodd" clip-rule="evenodd" d="M1.28216 9.90704C1.09446 9.71928 0.989011 9.46465 0.989011 9.19916C0.989011 8.93366 1.09446 8.67904 1.28216 8.49127L4.57929 5.19415L1.28216 1.89703C1.09978 1.70819 0.998858 1.45527 1.00114 1.19275C1.00342 0.930223 1.10872 0.679096 1.29436 0.493456C1.48 0.307816 1.73113 0.202516 1.99365 0.200233C2.25618 0.197952 2.5091 0.298873 2.69793 0.481259L6.70294 4.48627C6.89065 4.67403 6.99609 4.92865 6.99609 5.19415C6.99609 5.45965 6.89065 5.71427 6.70294 5.90204L2.69793 9.90704C2.51017 10.0947 2.25555 10.2002 1.99005 10.2002C1.72455 10.2002 1.46993 10.0947 1.28216 9.90704Z" fill="#64708D"/>
</svg>
