<svg width="26" height="36" viewBox="0 0 26 36" fill="none" xmlns="http://www.w3.org/2000/svg">
<path d="M25.8061 12.4317V0.982422H0.351562V13.2628L11.5014 15.6777V31.728C9.71978 30.5686 7.44318 28.5324 5.73945 25.0977C4.32502 22.2452 3.76131 19.3584 3.55737 17.1294L0.390518 16.4425C0.543476 19.2612 1.16619 22.8618 2.957 26.4727C5.87178 32.3504 10.1832 34.8041 12.4931 35.7445L13.0791 35.9824L13.6646 35.7445C15.9744 34.8041 20.2859 32.3504 23.2007 26.4727C24.5383 23.7758 25.2235 21.0846 25.5495 18.7207C25.7047 17.5961 25.7775 16.5454 25.801 15.6028L17.712 13.8502V17.0224L22.4966 18.0589C22.2297 20.1312 21.643 22.6267 20.4176 25.0971C18.6985 28.5639 16.3961 30.6052 14.607 31.7595V13.1782L11.502 12.5055L3.45597 10.7627L3.45654 4.08255H11.5014V9.33332L14.6064 10.006V4.08255H22.7011V11.7591L25.8061 12.4317Z" fill="#0B1736"/>
</svg>
