<svg width="26" height="26" viewBox="0 0 26 26" fill="none" xmlns="http://www.w3.org/2000/svg">
<path d="M11.5 21.4824C13.7187 21.482 15.8735 20.7392 17.6212 19.3724L23.1162 24.8674L24.8837 23.0999L19.3888 17.6049C20.7562 15.857 21.4995 13.7017 21.5 11.4824C21.5 5.96867 17.0137 1.48242 11.5 1.48242C5.98625 1.48242 1.5 5.96867 1.5 11.4824C1.5 16.9962 5.98625 21.4824 11.5 21.4824ZM11.5 3.98242C15.6362 3.98242 19 7.34617 19 11.4824C19 15.6187 15.6362 18.9824 11.5 18.9824C7.36375 18.9824 4 15.6187 4 11.4824C4 7.34617 7.36375 3.98242 11.5 3.98242Z" fill="#0B1736" stroke="#0B1736" stroke-width="1.25"/>
</svg>
