<svg width="22" height="22" viewBox="0 0 22 22" fill="none" xmlns="http://www.w3.org/2000/svg">
<path fill-rule="evenodd" clip-rule="evenodd" d="M4.88873 1.85383C6.69767 0.645138 8.82441 0 11 0C12.4445 0 13.8749 0.284523 15.2095 0.837325C16.5441 1.39013 17.7567 2.20038 18.7782 3.22182C19.7996 4.24327 20.6099 5.4559 21.1627 6.79048C21.7155 8.12506 22 9.55546 22 11C22 13.1756 21.3549 15.3023 20.1462 17.1113C18.9375 18.9202 17.2195 20.3301 15.2095 21.1627C13.1995 21.9952 10.9878 22.2131 8.85401 21.7886C6.72022 21.3642 4.76021 20.3165 3.22183 18.7782C1.68345 17.2398 0.635804 15.2798 0.211367 13.146C-0.213071 11.0122 0.00476619 8.80047 0.83733 6.79048C1.66989 4.78049 3.07979 3.06253 4.88873 1.85383ZM11 1.4152C9.10431 1.4152 7.25119 1.97734 5.67498 3.03053C4.09877 4.08372 2.87026 5.58066 2.14481 7.33206C1.41936 9.08345 1.22955 11.0106 1.59938 12.8699C1.96921 14.7292 2.88207 16.437 4.22253 17.7775C5.56299 19.1179 7.27083 20.0308 9.1301 20.4006C10.9894 20.7705 12.9166 20.5806 14.6679 19.8552C16.4193 19.1297 17.9163 17.9012 18.9695 16.325C20.0227 14.7488 20.5848 12.8957 20.5848 11C20.5848 9.74131 20.3369 8.49494 19.8552 7.33206C19.3735 6.16918 18.6675 5.11256 17.7775 4.22253C16.8874 3.3325 15.8308 2.62648 14.6679 2.1448C13.5051 1.66312 12.2587 1.4152 11 1.4152Z" fill="#0B1736"/>
<path fill-rule="evenodd" clip-rule="evenodd" d="M10.5838 6.04372C10.8319 5.86336 11.1679 5.86336 11.416 6.04372L16.0041 9.37937C16.2517 9.55942 16.3555 9.87833 16.2612 10.1696L14.5138 15.5674C14.4193 15.8593 14.1474 16.0571 13.8406 16.0571H8.15917C7.85234 16.0571 7.58047 15.8593 7.48597 15.5674L5.73855 10.1696C5.64424 9.87833 5.748 9.55942 5.99566 9.37937L10.5838 6.04372ZM7.24307 10.2222L8.67386 14.6419H13.3259L14.7567 10.2222L10.9999 7.49089L7.24307 10.2222Z" fill="#0B1736"/>
<path fill-rule="evenodd" clip-rule="evenodd" d="M6.47834 1.09075C6.69676 0.766688 7.13653 0.681055 7.46059 0.899479L11 3.28514L14.5394 0.899479C14.8635 0.681055 15.3032 0.766688 15.5217 1.09075C15.7401 1.4148 15.6544 1.85457 15.3304 2.073L11.3955 4.72523C11.1564 4.88636 10.8435 4.88636 10.6045 4.72523L6.6696 2.073C6.34554 1.85457 6.25991 1.4148 6.47834 1.09075Z" fill="#0B1736"/>
<path fill-rule="evenodd" clip-rule="evenodd" d="M20.5023 16.2282C20.5616 16.6145 20.2966 16.9757 19.9103 17.035L15.8074 17.6651L14.0131 21.3275C13.8412 21.6784 13.4173 21.8235 13.0664 21.6516C12.7154 21.4797 12.5703 21.0558 12.7422 20.7048L14.6992 16.7105C14.8011 16.5025 14.9983 16.3575 15.2272 16.3224L19.6955 15.6362C20.0818 15.5769 20.443 15.842 20.5023 16.2282Z" fill="#0B1736"/>
<path fill-rule="evenodd" clip-rule="evenodd" d="M18.9033 3.58258C19.2897 3.64127 19.5553 4.00206 19.4966 4.38842L18.878 8.46096L21.7592 11.3304C22.0361 11.6061 22.037 12.0542 21.7613 12.3311C21.4855 12.608 21.0375 12.6089 20.7606 12.3331L17.6253 9.21064C17.4655 9.05156 17.3912 8.82589 17.425 8.60301L18.0975 4.1759C18.1561 3.78954 18.5169 3.5239 18.9033 3.58258Z" fill="#0B1736"/>
<path fill-rule="evenodd" clip-rule="evenodd" d="M10.9996 3.43079C11.3904 3.43079 11.7072 3.74759 11.7072 4.13839V6.61588C11.7072 7.00668 11.3904 7.32349 10.9996 7.32349C10.6088 7.32349 10.292 7.00668 10.292 6.61588V4.13839C10.292 3.74759 10.6088 3.43079 10.9996 3.43079Z" fill="#0B1736"/>
<path fill-rule="evenodd" clip-rule="evenodd" d="M18.7601 8.39804C18.932 8.74899 18.7869 9.17287 18.436 9.34479L15.8999 10.5872C15.549 10.7591 15.1251 10.614 14.9532 10.2631C14.7812 9.91211 14.9264 9.48824 15.2773 9.31631L17.8134 8.0739C18.1643 7.90197 18.5882 8.0471 18.7601 8.39804Z" fill="#0B1736"/>
<path fill-rule="evenodd" clip-rule="evenodd" d="M3.0974 3.58258C3.48377 3.5239 3.84455 3.78954 3.90324 4.1759L4.57568 8.60301C4.60953 8.82589 4.53516 9.05156 4.37542 9.21064L1.24013 12.3331C0.96323 12.6089 0.515202 12.608 0.239432 12.3311C-0.0363377 12.0542 -0.0354207 11.6061 0.24148 11.3304L3.12266 8.46096L2.50408 4.38842C2.4454 4.00206 2.71104 3.64127 3.0974 3.58258Z" fill="#0B1736"/>
<path fill-rule="evenodd" clip-rule="evenodd" d="M3.24029 8.39804C3.41221 8.0471 3.83609 7.90197 4.18703 8.0739L6.72308 9.31631C7.07403 9.48824 7.21915 9.91211 7.04722 10.2631C6.87529 10.614 6.45142 10.7591 6.10047 10.5872L3.56443 9.34479C3.21348 9.17287 3.06836 8.74899 3.24029 8.39804Z" fill="#0B1736"/>
<path fill-rule="evenodd" clip-rule="evenodd" d="M13.37 14.8215C13.6614 14.5612 14.1087 14.5864 14.3691 14.8778L15.8631 16.5502C16.1235 16.8416 16.0983 17.289 15.8068 17.5493C15.5154 17.8097 15.068 17.7845 14.8077 17.493L13.3137 15.8206C13.0533 15.5292 13.0785 15.0819 13.37 14.8215Z" fill="#0B1736"/>
<path fill-rule="evenodd" clip-rule="evenodd" d="M1.49756 16.2282C1.55687 15.842 1.91809 15.5769 2.30436 15.6362L6.77263 16.3224C7.00155 16.3575 7.19878 16.5025 7.30067 16.7105L9.2576 20.7048C9.42953 21.0558 9.28442 21.4797 8.93348 21.6516C8.58253 21.8235 8.15865 21.6784 7.98672 21.3275L6.19243 17.6651L2.08956 17.035C1.70329 16.9757 1.43824 16.6145 1.49756 16.2282Z" fill="#0B1736"/>
<path fill-rule="evenodd" clip-rule="evenodd" d="M8.63005 14.8215C8.92149 15.0819 8.9467 15.5292 8.68634 15.8206L7.19235 17.493C6.93199 17.7845 6.48467 17.8097 6.19323 17.5493C5.90179 17.289 5.87658 16.8416 6.13694 16.5502L7.63093 14.8778C7.89129 14.5864 8.33861 14.5612 8.63005 14.8215Z" fill="#0B1736"/>
</svg>
