<svg width="20" height="21" viewBox="0 0 20 21" fill="none" xmlns="http://www.w3.org/2000/svg">
<path fill-rule="evenodd" clip-rule="evenodd" d="M10 2.15889C5.1269 2.15889 1.17647 6.10932 1.17647 10.9824C1.17647 15.8555 5.1269 19.806 10 19.806C14.8731 19.806 18.8235 15.8555 18.8235 10.9824C18.8235 6.10932 14.8731 2.15889 10 2.15889ZM0 10.9824C0 5.45957 4.47715 0.982422 10 0.982422C15.5228 0.982422 20 5.45957 20 10.9824C20 16.5053 15.5228 20.9824 10 20.9824C4.47715 20.9824 0 16.5053 0 10.9824Z" fill="#EE4266"/>
<path fill-rule="evenodd" clip-rule="evenodd" d="M13.2411 7.74309C13.4708 7.97281 13.4708 8.34526 13.2411 8.57498L7.59402 14.222C7.3643 14.4518 6.99185 14.4518 6.76213 14.222C6.53241 13.9923 6.53241 13.6199 6.76213 13.3901L12.4092 7.74309C12.6389 7.51337 13.0114 7.51337 13.2411 7.74309Z" fill="#EE4266"/>
<path fill-rule="evenodd" clip-rule="evenodd" d="M6.76213 7.74309C6.99185 7.51337 7.3643 7.51337 7.59402 7.74309L13.2411 13.3901C13.4708 13.6199 13.4708 13.9923 13.2411 14.222C13.0114 14.4518 12.6389 14.4518 12.4092 14.222L6.76213 8.57498C6.53241 8.34526 6.53241 7.97281 6.76213 7.74309Z" fill="#EE4266"/>
</svg>
