<svg width="21" height="22" viewBox="0 0 21 22" fill="none" xmlns="http://www.w3.org/2000/svg">
<path d="M4.455 13.9824L0 17.4824V1.98242C0 1.71721 0.105357 1.46285 0.292893 1.27532C0.48043 1.08778 0.734784 0.982422 1 0.982422H16C16.2652 0.982422 16.5196 1.08778 16.7071 1.27532C16.8946 1.46285 17 1.71721 17 1.98242V13.9824H4.455ZM3.763 11.9824H15V2.98242H2V13.3674L3.763 11.9824ZM7 15.9824H17.237L19 17.3674V6.98242H20C20.2652 6.98242 20.5196 7.08778 20.7071 7.27532C20.8946 7.46285 21 7.71721 21 7.98242V21.4824L16.545 17.9824H8C7.73478 17.9824 7.48043 17.8771 7.29289 17.6895C7.10536 17.502 7 17.2476 7 16.9824V15.9824Z" fill="#64708D"/>
</svg>
