<svg width="24" height="25" viewBox="0 0 24 25" fill="none" xmlns="http://www.w3.org/2000/svg">
<path d="M13 7.98242H11V11.9824H7V13.9824H11V17.9824H13V13.9824H17V11.9824H13V7.98242Z" fill="#64708D"/>
<path d="M12 2.98242C6.486 2.98242 2 7.46842 2 12.9824C2 18.4964 6.486 22.9824 12 22.9824C17.514 22.9824 22 18.4964 22 12.9824C22 7.46842 17.514 2.98242 12 2.98242ZM12 20.9824C7.589 20.9824 4 17.3934 4 12.9824C4 8.57142 7.589 4.98242 12 4.98242C16.411 4.98242 20 8.57142 20 12.9824C20 17.3934 16.411 20.9824 12 20.9824Z" fill="#64708D"/>
</svg>
