<svg width="16" height="24" viewBox="0 0 16 24" fill="none" xmlns="http://www.w3.org/2000/svg">
<path fill-rule="evenodd" clip-rule="evenodd" d="M12.5714 1.71429H3.42857C2.4818 1.71429 1.71429 2.4818 1.71429 3.42857V20.5714C1.71429 21.5182 2.4818 22.2857 3.42857 22.2857H12.5714C13.5182 22.2857 14.2857 21.5182 14.2857 20.5714V3.42857C14.2857 2.4818 13.5182 1.71429 12.5714 1.71429ZM3.42857 0C1.53502 0 0 1.53502 0 3.42857V20.5714C0 22.465 1.53502 24 3.42857 24H12.5714C14.465 24 16 22.465 16 20.5714V3.42857C16 1.53502 14.465 0 12.5714 0H3.42857Z" fill="#FFC728"/>
</svg>
