<svg width="16" height="10" viewBox="0 0 16 10" fill="none" xmlns="http://www.w3.org/2000/svg">
<path fill-rule="evenodd" clip-rule="evenodd" d="M0.469045 9.06079C0.769465 9.34202 1.17687 9.5 1.60166 9.5C2.02645 9.5 2.43386 9.34202 2.73428 9.06079L8.00967 4.12094L13.2851 9.06079C13.5872 9.33405 13.9919 9.48525 14.4119 9.48183C14.832 9.47841 15.2338 9.32065 15.5308 9.04252C15.8278 8.76438 15.9963 8.38814 15.9999 7.99481C16.0036 7.60149 15.8421 7.22256 15.5503 6.93964L9.14229 0.939211C8.84187 0.657985 8.43447 0.5 8.00967 0.5C7.58488 0.5 7.17748 0.657985 6.87706 0.939211L0.469045 6.93964C0.168716 7.22095 0 7.60244 0 8.00021C0 8.39799 0.168716 8.77948 0.469045 9.06079Z" fill="#0B1736"/>
</svg>
