<svg width="26" height="29" viewBox="0 0 26 29" fill="none" xmlns="http://www.w3.org/2000/svg">
<path d="M1.58336 14.4166C1.26118 14.0945 0.738819 14.0945 0.416637 14.4166C0.0944544 14.7388 0.0944544 15.2612 0.416637 15.5834L1.58336 14.4166ZM13 27L12.4166 27.5834L13 28.1667L13.5834 27.5834L13 27ZM25.5834 15.5834C25.9055 15.2612 25.9055 14.7388 25.5834 14.4166C25.2612 14.0945 24.7388 14.0945 24.4166 14.4166L25.5834 15.5834ZM0.416637 15.5834L12.4166 27.5834L13.5834 26.4166L1.58336 14.4166L0.416637 15.5834ZM13.5834 27.5834L25.5834 15.5834L24.4166 14.4166L12.4166 26.4166L13.5834 27.5834Z" fill="#0B1736"/>
<path d="M13 27V10.5789M13 10.5789V1L22.3333 5.78947L13 10.5789Z" stroke="#0B1736" stroke-width="1.65" stroke-linecap="round" stroke-linejoin="round"/>
<path fill-rule="evenodd" clip-rule="evenodd" d="M9.43551 15.5255C9.18463 14.7415 8.34382 14.2989 7.58981 14.6291C6.21688 15.2305 4.96324 16.0536 3.87423 17.0533C3.29935 17.581 3.32671 18.4732 3.87303 19.0304C4.4837 19.6533 5.49285 19.6094 6.15393 19.0403C6.85705 18.435 7.64123 17.9212 8.48799 17.5175C9.24046 17.1588 9.68957 16.3194 9.43551 15.5255Z" fill="#0B1736"/>
<path fill-rule="evenodd" clip-rule="evenodd" d="M20.5358 19.6879L22.6573 17.5664C20.206 15.0572 16.7849 13.4996 13 13.4996V16.4996C15.9565 16.4996 18.6276 17.7215 20.5358 19.6879Z" fill="#0B1736"/>
</svg>
