<svg width="24" height="18" viewBox="0 0 24 18" fill="none" xmlns="http://www.w3.org/2000/svg">
<path d="M15.43 17.2745V15.5001C15.43 14.5588 15.0561 13.6562 14.3905 12.9906C13.725 12.3251 12.8223 11.9512 11.8811 11.9512H4.78327C3.84205 11.9512 2.93937 12.3251 2.27382 12.9906C1.60828 13.6562 1.23438 14.5588 1.23438 15.5001V17.2745" stroke="#0B1736" stroke-width="1.3" stroke-linecap="round" stroke-linejoin="round"/>
<path d="M8.33405 8.40248C10.2941 8.40248 11.883 6.81359 11.883 4.85358C11.883 2.89358 10.2941 1.30469 8.33405 1.30469C6.37405 1.30469 4.78516 2.89358 4.78516 4.85358C4.78516 6.81359 6.37405 8.40248 8.33405 8.40248Z" stroke="#0B1736" stroke-width="1.3" stroke-linecap="round" stroke-linejoin="round"/>
<g clip-path="url(#clip0_5344_25580)">
<path d="M15.9062 8.54297H22.0938" stroke="#0B1736" stroke-width="1.3" stroke-linecap="round" stroke-linejoin="round"/>
<path d="M19 5.44922V11.6367" stroke="#0B1736" stroke-width="1.3" stroke-linecap="round" stroke-linejoin="round"/>
</g>
<defs>
<clipPath id="clip0_5344_25580">
<rect width="9" height="9.04321" fill="white" transform="translate(14.5 4)"/>
</clipPath>
</defs>
</svg>
