<svg width="24" height="24" viewBox="0 0 24 24" fill="none" xmlns="http://www.w3.org/2000/svg">
<path d="M17.1317 9.20726L17.647 13.5134L13.2998 14.1636" stroke="#0B1736" stroke-width="2" stroke-linecap="round" stroke-linejoin="round"/>
<path d="M9.8 1H2.46667C2.07768 1 1.70463 1.15452 1.42958 1.42958C1.15452 1.70463 1 2.07768 1 2.46667V21.5333C1 21.9223 1.15452 22.2954 1.42958 22.5704C1.70463 22.8455 2.07768 23 2.46667 23H9.8" stroke="#0B1736" stroke-width="2" stroke-linecap="round" stroke-linejoin="round"/>
<path d="M12.7334 1V5.4" stroke="#0B1736" stroke-width="2" stroke-linecap="round" stroke-linejoin="round"/>
<path d="M12.7334 17.1334V23.0001" stroke="#0B1736" stroke-width="2" stroke-linecap="round" stroke-linejoin="round"/>
<path d="M17.1337 1H15.667" stroke="#0B1736" stroke-width="2" stroke-linecap="round" stroke-linejoin="round"/>
<path d="M17.1337 23H15.667" stroke="#0B1736" stroke-width="2" stroke-linecap="round" stroke-linejoin="round"/>
<path d="M23 5.40004V6.86671" stroke="#0B1736" stroke-width="2" stroke-linecap="round" stroke-linejoin="round"/>
<path d="M23 11.2666V12.7333" stroke="#0B1736" stroke-width="2" stroke-linecap="round" stroke-linejoin="round"/>
<path d="M23 17.1334V18.6001" stroke="#0B1736" stroke-width="2" stroke-linecap="round" stroke-linejoin="round"/>
<path d="M22.9999 2.46667C22.9999 2.07768 22.8453 1.70463 22.5703 1.42958C22.2952 1.15452 21.9222 1 21.5332 1" stroke="#0B1736" stroke-width="2" stroke-linecap="round" stroke-linejoin="round"/>
<path d="M21.5332 22.9999C21.9222 22.9999 22.2952 22.8454 22.5703 22.5703C22.8453 22.2953 22.9999 21.9222 22.9999 21.5332" stroke="#0B1736" stroke-width="2" stroke-linecap="round" stroke-linejoin="round"/>
<path d="M5.77539 14.9334C6.18602 13.7722 6.91329 12.7492 7.87499 11.9798C8.83668 11.2104 9.99444 10.7254 11.2174 10.5797C12.4403 10.4339 13.6796 10.6331 14.7952 11.1549C15.9108 11.6767 16.8582 12.5001 17.5302 13.5322" stroke="#0B1736" stroke-width="2" stroke-linecap="round" stroke-linejoin="round"/>
</svg>
