<svg width="26" height="24" viewBox="0 0 26 24" fill="none" xmlns="http://www.w3.org/2000/svg">
<path fill-rule="evenodd" clip-rule="evenodd" d="M4.39752 20.1263L4.53778 17.9507L3.60028 16.3269L1.64612 15.3606C1.52034 15.2996 1.40957 15.2116 1.32167 15.1029C1.23378 14.9942 1.17093 14.8675 1.1376 14.7318C0.704143 12.9245 0.704135 11.0404 1.13757 9.23319C1.17091 9.09744 1.23376 8.97071 1.32166 8.86203C1.40956 8.75334 1.52034 8.66537 1.64612 8.60438L3.60035 7.63807L4.53785 6.01427L4.39761 3.83876C4.38754 3.69934 4.40834 3.55942 4.45851 3.42895C4.50869 3.29849 4.58702 3.1807 4.68792 3.08396C6.0363 1.80496 7.66799 0.862893 9.44982 0.334642C9.58405 0.295638 9.72523 0.286709 9.8633 0.308489C10.0014 0.330269 10.1329 0.382223 10.2487 0.460651L12.0626 1.66991H13.9376L15.7515 0.460703C15.8673 0.382276 15.9988 0.330325 16.1369 0.308549C16.275 0.286774 16.4162 0.295709 16.5504 0.334719C18.3322 0.862955 19.9639 1.805 21.3123 3.08398C21.4132 3.18073 21.4915 3.29853 21.5417 3.42899C21.5919 3.55946 21.6127 3.69938 21.6026 3.8388L21.4623 6.01437L22.3998 7.63818L24.354 8.60447C24.4798 8.66547 24.5905 8.75344 24.6784 8.86212C24.7663 8.97081 24.8292 9.09754 24.8625 9.23329C25.296 11.0405 25.296 12.9246 24.8625 14.7319C24.8292 14.8676 24.7663 14.9943 24.6784 15.103C24.5905 15.2117 24.4798 15.2997 24.354 15.3607L22.3998 16.327L21.4623 17.9508L21.6025 20.1263C21.6126 20.2657 21.5918 20.4056 21.5416 20.5361C21.4914 20.6666 21.4131 20.7844 21.3122 20.8811C19.9638 22.1601 18.3321 23.1022 16.5503 23.6304C16.4161 23.6694 16.2749 23.6784 16.1368 23.6566C15.9987 23.6348 15.8672 23.5828 15.7515 23.5044L13.9375 22.2951H12.0625L10.2486 23.5044C10.1329 23.5828 10.0013 23.6347 9.86321 23.6565C9.72513 23.6783 9.58395 23.6693 9.44973 23.6303C7.66789 23.1021 6.0362 22.1601 4.68781 20.8811C4.58691 20.7843 4.50859 20.6665 4.45841 20.5361C4.40824 20.4056 4.38745 20.2657 4.39752 20.1263ZM19.5625 11.9827C19.5625 15.607 16.6244 18.5452 13 18.5452C9.37563 18.5452 6.4375 15.607 6.4375 11.9827C6.4375 8.3583 9.37563 5.42017 13 5.42017C16.6244 5.42017 19.5625 8.3583 19.5625 11.9827Z" fill="#0B1736"/>
</svg>
