<svg fill="none" height="10" viewBox="0 0 13 10" width="13" xmlns="http://www.w3.org/2000/svg">
<path d="M5.98491 9.23063C6.04225 9.3139 6.11897 9.38199 6.20847 9.42903C6.29797 9.47607 6.39756 9.50065 6.49866 9.50065C6.59977 9.50065 6.69936 9.47607 6.78886 9.42903C6.87835 9.38199 6.95507 9.3139 7.01241 9.23063L12.6374 1.10563C12.7025 1.01191 12.7407 0.902145 12.7478 0.788254C12.7549 0.674363 12.7307 0.560702 12.6777 0.459621C12.6248 0.35854 12.5451 0.273905 12.4474 0.214911C12.3498 0.155918 12.2378 0.124821 12.1237 0.125001H0.873663C0.759816 0.125471 0.64825 0.156967 0.550964 0.216103C0.453678 0.275238 0.374353 0.359774 0.321519 0.460621C0.268685 0.561468 0.244342 0.67481 0.251107 0.788458C0.257872 0.902105 0.295489 1.01176 0.359913 1.10563L5.98491 9.23063Z" fill="#0B1736"/>
</svg>
