<svg width="40" height="41" viewBox="0 0 40 41" fill="none" xmlns="http://www.w3.org/2000/svg">
<g clip-path="url(#clip0_8731_177134)">
<path d="M31.8658 24.5354C33.4831 24.5354 34.7942 23.2243 34.7942 21.607C34.7942 19.9898 33.4831 18.6787 31.8658 18.6787C30.2486 18.6787 28.9375 19.9898 28.9375 21.607C28.9375 23.2243 30.2486 24.5354 31.8658 24.5354Z" stroke="#AEB6C9" stroke-width="2.5" stroke-linecap="round" stroke-linejoin="round"/>
<path d="M36.649 28.1898C36.084 27.4613 35.3598 26.8717 34.5319 26.4661C33.704 26.0605 32.7943 25.8496 31.8724 25.8496C30.9504 25.8496 30.0407 26.0605 29.2128 26.4661C28.3849 26.8717 27.6607 27.4613 27.0957 28.1898" stroke="#AEB6C9" stroke-width="2.5" stroke-linecap="round" stroke-linejoin="round"/>
<path d="M8.13536 24.5354C9.75264 24.5354 11.0637 23.2243 11.0637 21.607C11.0637 19.9898 9.75264 18.6787 8.13536 18.6787C6.51809 18.6787 5.20703 19.9898 5.20703 21.607C5.20703 23.2243 6.51809 24.5354 8.13536 24.5354Z" stroke="#AEB6C9" stroke-width="2.5" stroke-linecap="round" stroke-linejoin="round"/>
<path d="M3.34961 28.1885C3.91366 27.4598 4.63684 26.8697 5.46386 26.4634C6.29089 26.057 7.19987 25.845 8.12135 25.8438C9.04282 25.8425 9.95239 26.0519 10.7805 26.4559C11.6087 26.86 12.3335 27.4481 12.8996 28.1752" stroke="#AEB6C9" stroke-width="2.5" stroke-linecap="round" stroke-linejoin="round"/>
<path d="M27.4679 30.4996C27.4679 28.5189 26.6811 26.6193 25.2805 25.2187C23.8799 23.8181 21.9803 23.0312 19.9996 23.0312C18.0189 23.0312 16.1193 23.8181 14.7187 25.2187C13.3181 26.6193 12.5312 28.5189 12.5312 30.4996" stroke="#AEB6C9" stroke-width="2.5" stroke-linecap="round" stroke-linejoin="round"/>
<path d="M19.9231 20.9937C22.3605 20.9937 24.3364 19.0177 24.3364 16.5803C24.3364 14.1429 22.3605 12.167 19.9231 12.167C17.4857 12.167 15.5098 14.1429 15.5098 16.5803C15.5098 19.0177 17.4857 20.9937 19.9231 20.9937Z" stroke="#AEB6C9" stroke-width="2.5" stroke-linecap="round" stroke-linejoin="round"/>
<path d="M20 39.25C30.3553 39.25 38.75 30.8553 38.75 20.5C38.75 10.1447 30.3553 1.75 20 1.75C9.64466 1.75 1.25 10.1447 1.25 20.5C1.25 30.8553 9.64466 39.25 20 39.25Z" stroke="#AEB6C9" stroke-width="2.5" stroke-linecap="round" stroke-linejoin="round"/>
</g>
<defs>
<clipPath id="clip0_8731_177134">
<rect width="40" height="40" fill="white" transform="translate(0 0.5)"/>
</clipPath>
</defs>
</svg>
