<svg width="22" height="22" viewBox="0 0 22 22" fill="none" xmlns="http://www.w3.org/2000/svg">
<path fill-rule="evenodd" clip-rule="evenodd" d="M17.8465 7.69412C18.1769 7.36368 18.7127 7.36368 19.0431 7.69412L21.7507 10.4017C21.9093 10.5604 21.9985 10.7756 21.9985 11C21.9985 11.2244 21.9093 11.4396 21.7507 11.5983L19.0431 14.3059C18.7127 14.6363 18.1769 14.6363 17.8465 14.3059C17.516 13.9754 17.516 13.4397 17.8465 13.1092L19.9557 11L17.8465 8.89076C17.516 8.56032 17.516 8.02457 17.8465 7.69412Z" fill="#0B1736"/>
<path fill-rule="evenodd" clip-rule="evenodd" d="M0 10.9999C0 10.5326 0.378836 10.1537 0.846154 10.1537H21.1528C21.6201 10.1537 21.9989 10.5326 21.9989 10.9999C21.9989 11.4672 21.6201 11.8461 21.1528 11.8461H0.846154C0.378836 11.8461 0 11.4672 0 10.9999Z" fill="#0B1736"/>
<path fill-rule="evenodd" clip-rule="evenodd" d="M7.76508 4.3814C5.98099 2.63442 3.57622 1.66734 1.07937 1.69273C0.612075 1.69749 0.229407 1.32252 0.224654 0.855229C0.219902 0.387936 0.594865 0.00526679 1.06216 0.00051433C4.00762 -0.0294415 6.84444 1.11139 8.94908 3.17225C11.0537 5.2331 12.2539 8.04532 12.2859 10.9908V11.0091C12.2539 13.9546 11.0537 16.7668 8.94908 18.8276C6.84444 20.8885 4.00762 22.0293 1.06216 21.9994C0.594865 21.9946 0.219902 21.6119 0.224654 21.1446C0.229407 20.6774 0.612075 20.3024 1.07937 20.3071C3.57622 20.3325 5.98099 19.3655 7.76508 17.6185C9.54698 15.8736 10.5641 13.4934 10.5936 10.9999C10.5641 8.50644 9.54698 6.12624 7.76508 4.3814Z" fill="#0B1736"/>
</svg>
