<svg width="22" height="22" viewBox="0 0 22 22" fill="none" xmlns="http://www.w3.org/2000/svg">
<path d="M11 21C16.5228 21 21 16.5228 21 11C21 5.47715 16.5228 1 11 1C5.47715 1 1 5.47715 1 11C1 16.5228 5.47715 21 11 21Z" stroke="#0B1736" stroke-miterlimit="10"/>
<path d="M11.8101 1L9.39098 3.13263L6.08594 2.28912" stroke="#0B1736" stroke-miterlimit="10"/>
<path d="M9.39062 3.13281L9.91848 5.99223C10.8866 6.31318 11.9556 6.73493 13.0856 7.28931C13.8601 7.67127 14.5657 8.0665 15.197 8.45642C15.632 8.22035 16.0803 7.96305 16.5392 7.68719C16.9636 7.42989 17.3668 7.1726 17.7487 6.91796C17.7355 6.4856 17.7301 6.04528 17.7275 5.597C17.7248 4.92326 17.7328 4.26544 17.7487 3.62618" stroke="#0B1736" stroke-miterlimit="10"/>
<path d="M9.91942 5.99219C9.39688 6.51739 8.86637 7.06911 8.33587 7.64206C7.45788 8.589 6.64621 9.52269 5.8929 10.4352C4.92473 10.268 3.9539 10.1036 2.98573 9.93648C2.85045 9.45903 2.68335 8.94179 2.46849 8.39537C2.2669 7.87548 2.05205 7.40333 1.83984 6.97893" stroke="#0B1736" stroke-miterlimit="10"/>
<path d="M15.2022 8.45668C15.1916 9.29753 15.1518 10.1941 15.0696 11.141C14.9794 12.1967 14.8494 13.1835 14.6956 14.0959C13.8574 14.4195 12.8547 14.7431 11.7035 14.9898C10.6478 15.2153 9.68233 15.332 8.84148 15.3877C8.36668 14.8333 7.86005 14.1676 7.36933 13.3851C6.69559 12.3134 6.2261 11.3002 5.89453 10.4355" stroke="#0B1736" stroke-miterlimit="10"/>
<path d="M2.98605 9.93945C2.80568 10.3532 2.58287 10.8015 2.30701 11.2737C1.933 11.9103 1.54308 12.4487 1.17969 12.8944" stroke="#0B1736" stroke-miterlimit="10"/>
<path d="M17.7539 6.91797C18.1571 7.28402 18.6743 7.69516 19.3162 8.08508C19.8335 8.39807 20.3242 8.6315 20.7566 8.80391" stroke="#0B1736" stroke-miterlimit="10"/>
<path d="M14.6953 14.0986L16.8306 16.1888C17.2152 16.0111 17.6423 15.836 18.1065 15.6742C18.8279 15.4249 19.5017 15.2551 20.1011 15.1437" stroke="#0B1736" stroke-miterlimit="10"/>
<path d="M8.83973 15.3896L7.69649 18.0713L4.20312 18.3313" stroke="#0B1736" stroke-miterlimit="10"/>
<path d="M7.69922 18.0713L9.92203 20.9387" stroke="#0B1736" stroke-miterlimit="10"/>
<path d="M16.8283 16.1885L15.9609 19.6792" stroke="#0B1736" stroke-miterlimit="10"/>
</svg>
