<svg width="12" height="8" viewBox="0 0 12 8" fill="none" xmlns="http://www.w3.org/2000/svg">
<path fill-rule="evenodd" clip-rule="evenodd" d="M0.351784 7.40839C0.577099 7.62712 0.88265 7.75 1.20125 7.75C1.51984 7.75 1.82539 7.62712 2.05071 7.40839L6.00725 3.56628L9.9638 7.40839C10.1904 7.62092 10.4939 7.73853 10.8089 7.73587C11.124 7.73321 11.4253 7.6105 11.6481 7.39418C11.8709 7.17785 11.9972 6.88522 12 6.5793C12.0027 6.27338 11.8816 5.97866 11.6627 5.75861L6.85672 1.09161C6.6314 0.872877 6.32585 0.75 6.00725 0.75C5.68866 0.75 5.38311 0.872877 5.15779 1.09161L0.351784 5.75861C0.126537 5.97741 0 6.27412 0 6.5835C0 6.89288 0.126537 7.18959 0.351784 7.40839Z" fill="#AEB6C9"/>
</svg>
