<svg width="20" height="20" viewBox="0 0 20 20" fill="none" xmlns="http://www.w3.org/2000/svg">
<path d="M8.88672 16.4609C10.6617 16.4606 12.3855 15.8664 13.7837 14.7729L18.1797 19.1689L19.5937 17.7549L15.1977 13.3589C16.2917 11.9606 16.8863 10.2364 16.8867 8.46094C16.8867 4.04994 13.2977 0.460938 8.88672 0.460938C4.47572 0.460938 0.886719 4.04994 0.886719 8.46094C0.886719 12.8719 4.47572 16.4609 8.88672 16.4609ZM8.88672 2.46094C12.1957 2.46094 14.8867 5.15194 14.8867 8.46094C14.8867 11.7699 12.1957 14.4609 8.88672 14.4609C5.57772 14.4609 2.88672 11.7699 2.88672 8.46094C2.88672 5.15194 5.57772 2.46094 8.88672 2.46094Z" fill="#64708D"/>
</svg>
