<svg width="24" height="24" viewBox="0 0 24 24" fill="none" xmlns="http://www.w3.org/2000/svg">
<path fill-rule="evenodd" clip-rule="evenodd" d="M12.0003 16.3722C12.4627 16.3722 12.8375 16.747 12.8375 17.2094V23.1629C12.8375 23.6253 12.4627 24.0001 12.0003 24.0001C11.5379 24.0001 11.1631 23.6253 11.1631 23.1629V17.2094C11.1631 16.747 11.5379 16.3722 12.0003 16.3722Z" fill="#0B1736"/>
<path fill-rule="evenodd" clip-rule="evenodd" d="M12.0003 0C12.4627 0 12.8375 0.374832 12.8375 0.83721V6.79071C12.8375 7.25309 12.4627 7.62792 12.0003 7.62792C11.5379 7.62792 11.1631 7.25309 11.1631 6.79071V0.83721C11.1631 0.374832 11.5379 0 12.0003 0Z" fill="#0B1736"/>
<path fill-rule="evenodd" clip-rule="evenodd" d="M0 12.0001C0 11.5378 0.374832 11.1629 0.837211 11.1629H6.79071C7.25309 11.1629 7.62792 11.5378 7.62792 12.0001C7.62792 12.4625 7.25309 12.8374 6.79071 12.8374H0.837211C0.374832 12.8374 0 12.4625 0 12.0001Z" fill="#0B1736"/>
<path fill-rule="evenodd" clip-rule="evenodd" d="M16.3721 12.0001C16.3721 11.5378 16.7469 11.1629 17.2093 11.1629H23.1628C23.6252 11.1629 24 11.5378 24 12.0001C24 12.4625 23.6252 12.8374 23.1628 12.8374H17.2093C16.7469 12.8374 16.3721 12.4625 16.3721 12.0001Z" fill="#0B1736"/>
<path fill-rule="evenodd" clip-rule="evenodd" d="M8.54775 3.66476C9.64251 3.2113 10.8159 2.97791 12.0008 2.97791C13.1858 2.97791 14.3591 3.2113 15.4539 3.66476C16.5486 4.11822 17.5433 4.78287 18.3812 5.62076C19.2191 6.45865 19.8838 7.45336 20.3372 8.54812C20.7907 9.64287 21.0241 10.8162 21.0241 12.0012C21.0241 13.1861 20.7907 14.3595 20.3372 15.4542C19.8838 16.549 19.2191 17.5437 18.3812 18.3816C17.5433 19.2195 16.5486 19.8841 15.4539 20.3376C14.3591 20.791 13.1858 21.0244 12.0008 21.0244C10.8159 21.0244 9.64251 20.791 8.54775 20.3376C7.453 19.8841 6.45828 19.2195 5.62039 18.3816C4.7825 17.5437 4.11786 16.549 3.66439 15.4542C3.21093 14.3595 2.97754 13.1861 2.97754 12.0012C2.97754 10.8162 3.21093 9.64287 3.66439 8.54812C4.11786 7.45336 4.7825 6.45865 5.62039 5.62076C6.45828 4.78287 7.453 4.11822 8.54775 3.66476ZM12.0008 4.65233C11.0357 4.65233 10.0801 4.84241 9.18853 5.21172C8.29692 5.58104 7.48679 6.12235 6.80439 6.80475C6.12198 7.48716 5.58067 8.29729 5.21136 9.18889C4.84204 10.0805 4.65196 11.0361 4.65196 12.0012C4.65196 12.9662 4.84204 13.9219 5.21136 14.8135C5.58067 15.7051 6.12198 16.5152 6.80439 17.1976C7.48679 17.88 8.29692 18.4213 9.18853 18.7906C10.0801 19.1599 11.0357 19.35 12.0008 19.35C12.9659 19.35 13.9215 19.1599 14.8131 18.7906C15.7047 18.4213 16.5148 17.88 17.1972 17.1976C17.8796 16.5152 18.4209 15.7051 18.7903 14.8135C19.1596 13.9219 19.3497 12.9662 19.3497 12.0012C19.3497 11.0361 19.1596 10.0805 18.7903 9.18889C18.4209 8.29729 17.8796 7.48716 17.1972 6.80475C16.5148 6.12235 15.7047 5.58104 14.8131 5.21172C13.9215 4.84241 12.9659 4.65233 12.0008 4.65233Z" fill="#0B1736"/>
</svg>
