<svg fill="none" height="25" viewBox="0 0 31 25" width="31" xmlns="http://www.w3.org/2000/svg">
<path d="M21.2629 23.2304V20.7894C21.2629 19.4945 20.7485 18.2527 19.8329 17.3372C18.9174 16.4216 17.6756 15.9072 16.3808 15.9072H6.6165C5.32168 15.9072 4.07989 16.4216 3.16432 17.3372C2.24874 18.2527 1.73438 19.4945 1.73438 20.7894V23.2304" stroke="white" stroke-linecap="round" stroke-linejoin="round" stroke-width="2"/>
<path d="M11.4993 11.025C14.1956 11.025 16.3814 8.8392 16.3814 6.14287C16.3814 3.44655 14.1956 1.26074 11.4993 1.26074C8.80299 1.26074 6.61719 3.44655 6.61719 6.14287C6.61719 8.8392 8.80299 11.025 11.4993 11.025Z" stroke="white" stroke-linecap="round" stroke-linejoin="round" stroke-width="2"/>
<path d="M22.4062 11.5H28.5938" stroke="white" stroke-linecap="round" stroke-linejoin="round" stroke-width="2"/>
<path d="M25.5 8.40625V14.5938" stroke="white" stroke-linecap="round" stroke-linejoin="round" stroke-width="2"/>
</svg>
