<svg width="14" height="14" viewBox="0 0 14 14" fill="none" xmlns="http://www.w3.org/2000/svg">
<path d="M1.49843 0.244509C1.33415 0.0858435 1.11412 -0.00195165 0.885742 3.29273e-05C0.65736 0.0020175 0.438894 0.0936233 0.277397 0.25512C0.115901 0.416616 0.0242951 0.635082 0.0223105 0.863464C0.0203259 1.09185 0.108121 1.31187 0.266787 1.47615L5.297 6.50636L0.265916 11.5366C0.182723 11.6169 0.116366 11.713 0.070716 11.8193C0.025066 11.9256 0.0010379 12.0399 3.28876e-05 12.1555C-0.000972124 12.2712 0.0210663 12.3859 0.0648626 12.4929C0.108659 12.6 0.173336 12.6972 0.255119 12.779C0.336903 12.8608 0.434156 12.9255 0.541202 12.9693C0.648249 13.0131 0.762946 13.0351 0.878601 13.0341C0.994256 13.0331 1.10855 13.0091 1.21482 12.9634C1.32109 12.9178 1.41721 12.8514 1.49756 12.7682L6.52864 7.738L11.5589 12.7682C11.7231 12.9269 11.9432 13.0147 12.1715 13.0127C12.3999 13.0107 12.6184 12.9191 12.7799 12.7576C12.9414 12.5961 13.033 12.3776 13.035 12.1493C13.037 11.9209 12.9492 11.7009 12.7905 11.5366L7.76028 6.50636L12.7905 1.47615C12.9492 1.31187 13.037 1.09185 13.035 0.863464C13.033 0.635082 12.9414 0.416616 12.7799 0.25512C12.6184 0.0936233 12.3999 0.0020175 12.1715 3.29273e-05C11.9432 -0.00195165 11.7231 0.0858435 11.5589 0.244509L6.52864 5.27472L1.49843 0.243638V0.244509Z" fill="#EE4266"/>
</svg>
