<svg width="30" height="31" viewBox="0 0 30 31" fill="none" xmlns="http://www.w3.org/2000/svg">
<path d="M6.58569 13.1698C6.58414 12.058 6.80267 10.9568 7.22868 9.92979C7.65469 8.90278 8.27976 7.97024 9.06786 7.18592C9.85595 6.40161 10.7915 5.78103 11.8205 5.35997C12.8496 4.93891 13.9518 4.72568 15.0637 4.73258C19.7031 4.76707 23.414 8.62337 23.414 13.2758V14.1073C23.414 18.3045 24.2921 20.74 25.0656 22.0712C25.1489 22.2134 25.1932 22.3751 25.1941 22.54C25.195 22.7048 25.1524 22.867 25.0706 23.0101C24.9888 23.1532 24.8707 23.2722 24.7282 23.3551C24.5858 23.438 24.424 23.4819 24.2591 23.4823H5.73967C5.57481 23.4819 5.41298 23.438 5.2705 23.3551C5.12802 23.2722 5.00994 23.1531 4.92815 23.01C4.84637 22.8668 4.80379 22.7046 4.8047 22.5398C4.80561 22.3749 4.84998 22.2132 4.93334 22.071C5.70716 20.7398 6.58568 18.3043 6.58568 14.1073L6.58569 13.1698Z" fill="#0B1736"/>
<path d="M11.25 23.9824V24.9199C11.25 25.9145 11.6451 26.8683 12.3483 27.5716C13.0516 28.2748 14.0054 28.6699 15 28.6699C15.9946 28.6699 16.9484 28.2748 17.6516 27.5716C18.3549 26.8683 18.75 25.9145 18.75 24.9199V23.9824" fill="#0B1736"/>
</svg>
