<svg width="30" height="24" viewBox="0 0 30 24" fill="none" xmlns="http://www.w3.org/2000/svg">
<path d="M27.7087 22.121C27.8292 22.2216 27.9758 22.2857 28.1314 22.3059C28.287 22.326 28.4452 22.3014 28.5873 22.2349C28.7294 22.1684 28.8496 22.0627 28.9338 21.9303C29.0179 21.7978 29.0626 21.6442 29.0625 21.4873V5.43726C29.0625 4.44269 28.6674 3.48887 27.9642 2.78561C27.2609 2.08234 26.3071 1.68726 25.3125 1.68726H4.6875C3.69294 1.68726 2.73911 2.08234 2.03585 2.78561C1.33259 3.48887 0.9375 4.44269 0.9375 5.43726V21.4873C0.937411 21.6442 0.982072 21.7978 1.06624 21.9303C1.15041 22.0627 1.2706 22.1684 1.41271 22.2349C1.55482 22.3014 1.71296 22.326 1.86857 22.3059C2.02417 22.2857 2.1708 22.2216 2.29125 22.121L6.5625 18.5623V7.31226H23.4375V18.5623L27.7087 22.121Z" stroke="#0B1736" stroke-width="1.65" stroke-linecap="round" stroke-linejoin="round"/>
<path d="M2.03613 2.78608L6.56238 7.31233" stroke="#0B1736" stroke-width="1.65" stroke-linecap="round" stroke-linejoin="round"/>
<path d="M27.9638 2.78608L23.4375 7.31233" stroke="#0B1736" stroke-width="1.65" stroke-linecap="round" stroke-linejoin="round"/>
<path d="M6.5625 18.5623H23.4375" stroke="#0B1736" stroke-width="1.65" stroke-linecap="round" stroke-linejoin="round"/>
<path d="M6.5625 11.0623H23.4375" stroke="#0B1736" stroke-width="1.65" stroke-linecap="round" stroke-linejoin="round"/>
<path d="M6.5625 14.8123H23.4375" stroke="#0B1736" stroke-width="1.65" stroke-linecap="round" stroke-linejoin="round"/>
<path d="M12.1875 18.5623V7.31226" stroke="#0B1736" stroke-width="1.65" stroke-linecap="round" stroke-linejoin="round"/>
<path d="M17.8125 18.5623V7.31226" stroke="#0B1736" stroke-width="1.65" stroke-linecap="round" stroke-linejoin="round"/>
</svg>
