<svg width="40" height="41" viewBox="0 0 40 41" fill="none" xmlns="http://www.w3.org/2000/svg">
<g clip-path="url(#clip0_8731_177167)">
<path d="M26.25 15.8252L19.615 24.6719C19.5075 24.815 19.3705 24.9334 19.2133 25.019C19.0561 25.1046 18.8823 25.1555 18.7037 25.1681C18.5252 25.1808 18.346 25.1549 18.1783 25.0923C18.0106 25.0297 17.8583 24.9318 17.7317 24.8052L13.75 20.8252" stroke="#AEB6C9" stroke-width="3" stroke-linecap="round" stroke-linejoin="round"/>
<path d="M17.8833 2.76177C18.1379 2.44532 18.4602 2.18999 18.8265 2.01455C19.1928 1.83912 19.5938 1.74805 20 1.74805C20.4061 1.74805 20.8071 1.83912 21.1734 2.01455C21.5397 2.18999 21.862 2.44532 22.1166 2.76177L24.6366 5.89677C24.922 6.25244 25.2924 6.53049 25.7136 6.70526C26.1348 6.88004 26.5933 6.9459 27.0466 6.89677L31.0466 6.46177C31.4515 6.41679 31.8614 6.46346 32.2458 6.59832C32.6303 6.73318 32.9795 6.95278 33.2675 7.24086C33.5556 7.52894 33.7752 7.87813 33.9101 8.26257C34.0449 8.64701 34.0916 9.05686 34.0466 9.46177L33.6116 13.4618C33.5625 13.9151 33.6284 14.3736 33.8031 14.7948C33.9779 15.216 34.256 15.5864 34.6116 15.8718L37.7466 18.3918C38.0631 18.6464 38.3184 18.9687 38.4938 19.335C38.6693 19.7013 38.7603 20.1023 38.7603 20.5084C38.7603 20.9146 38.6693 21.3156 38.4938 21.6819C38.3184 22.0482 38.0631 22.3705 37.7466 22.6251L34.6016 25.1334C34.2461 25.4193 33.9681 25.79 33.7934 26.2115C33.6186 26.6329 33.5527 27.0915 33.6016 27.5451L34.0366 31.5451C34.0819 31.9501 34.0355 32.3601 33.9007 32.7447C33.766 33.1293 33.5464 33.4786 33.2582 33.7667C32.9701 34.0549 32.6208 34.2745 32.2362 34.4092C31.8516 34.544 31.4416 34.5904 31.0366 34.5451L27.0366 34.1101C26.5832 34.0608 26.1248 34.1266 25.7035 34.3014C25.2823 34.4762 24.9119 34.7543 24.6266 35.1101L22.1166 38.2334C21.8622 38.5502 21.54 38.8058 21.1736 38.9814C20.8073 39.157 20.4062 39.2482 20 39.2482C19.5937 39.2482 19.1926 39.157 18.8263 38.9814C18.46 38.8058 18.1377 38.5502 17.8833 38.2334L15.365 35.1001C15.0792 34.7444 14.7085 34.4664 14.287 34.2916C13.8656 34.1169 13.4069 34.051 12.9533 34.1001L8.95329 34.5351C8.54824 34.5807 8.13811 34.5345 7.75338 34.3999C7.36864 34.2652 7.01918 34.0457 6.73095 33.7574C6.44273 33.4692 6.22314 33.1198 6.08851 32.735C5.95388 32.3503 5.90766 31.9402 5.95329 31.5351L6.38829 27.5351C6.43739 27.0815 6.37153 26.6228 6.19677 26.2014C6.02201 25.7799 5.74397 25.4092 5.38829 25.1234L2.25496 22.6051C1.93823 22.3507 1.68264 22.0284 1.50702 21.6621C1.3314 21.2958 1.24023 20.8947 1.24023 20.4884C1.24023 20.0822 1.3314 19.6811 1.50702 19.3148C1.68264 18.9484 1.93823 18.6262 2.25496 18.3718L5.38829 15.8518C5.74408 15.5665 6.02221 15.1961 6.19699 14.7749C6.37178 14.3536 6.43757 13.8952 6.38829 13.4418L5.95329 9.44177C5.90799 9.03679 5.95443 8.6268 6.08917 8.24222C6.22392 7.85763 6.44351 7.5083 6.73166 7.22015C7.01982 6.932 7.36914 6.71241 7.75373 6.57766C8.13832 6.44291 8.5483 6.39647 8.95329 6.44178L12.9533 6.87677C13.4069 6.92572 13.8655 6.85979 14.2869 6.68504C14.7084 6.51029 15.0791 6.23234 15.365 5.87677L17.8833 2.76177Z" stroke="#AEB6C9" stroke-width="3" stroke-linecap="round" stroke-linejoin="round"/>
</g>
<defs>
<clipPath id="clip0_8731_177167">
<rect width="40" height="40" fill="white" transform="translate(0 0.5)"/>
</clipPath>
</defs>
</svg>
