<svg width="20" height="19" viewBox="0 0 20 19" fill="none" xmlns="http://www.w3.org/2000/svg">
<path d="M1 0.982422H19C19.2652 0.982422 19.5196 1.08778 19.7071 1.27532C19.8946 1.46285 20 1.71721 20 1.98242V17.9824C20 18.2476 19.8946 18.502 19.7071 18.6895C19.5196 18.8771 19.2652 18.9824 19 18.9824H1C0.734784 18.9824 0.48043 18.8771 0.292893 18.6895C0.105357 18.502 0 18.2476 0 17.9824V1.98242C0 1.71721 0.105357 1.46285 0.292893 1.27532C0.48043 1.08778 0.734784 0.982422 1 0.982422ZM18 5.22042L10.072 12.3204L2 5.19842V16.9824H18V5.22042ZM2.511 2.98242L10.061 9.64442L17.502 2.98242H2.511Z" fill="#64708D"/>
</svg>
