<svg width="12" height="13" viewBox="0 0 12 13" fill="none" xmlns="http://www.w3.org/2000/svg">
<g clip-path="url(#clip0_16362_34510)">
<path fill-rule="evenodd" clip-rule="evenodd" d="M4.75 5.75C4.75 5.47386 4.97386 5.25 5.25 5.25H5.625C5.85707 5.25 6.07962 5.34219 6.24372 5.50628C6.40781 5.67038 6.5 5.89293 6.5 6.125V8C6.5 8.0663 6.52634 8.12989 6.57322 8.17678C6.62011 8.22366 6.6837 8.25 6.75 8.25H7.125C7.40114 8.25 7.625 8.47386 7.625 8.75C7.625 9.02614 7.40114 9.25 7.125 9.25H6.75C6.41848 9.25 6.10054 9.1183 5.86612 8.88388C5.6317 8.64946 5.5 8.33152 5.5 8V6.25H5.25C4.97386 6.25 4.75 6.02614 4.75 5.75Z" fill="#AEB6C9"/>
<path d="M5.8125 3.875C5.77542 3.875 5.73916 3.886 5.70833 3.9066C5.6775 3.9272 5.65346 3.95649 5.63927 3.99075C5.62508 4.02501 5.62137 4.06271 5.6286 4.09908C5.63584 4.13545 5.65369 4.16886 5.67992 4.19508C5.70614 4.2213 5.73955 4.23916 5.77592 4.2464C5.81229 4.25363 5.84999 4.24992 5.88425 4.23573C5.91851 4.22154 5.9478 4.1975 5.9684 4.16667C5.989 4.13584 6 4.09958 6 4.0625C6 4.01277 5.98025 3.96508 5.94508 3.92992C5.90992 3.89475 5.86223 3.875 5.8125 3.875Z" fill="#AEB6C9"/>
<path fill-rule="evenodd" clip-rule="evenodd" d="M5.49999 3.5948C5.59249 3.53299 5.70125 3.5 5.8125 3.5C5.96168 3.5 6.10476 3.55926 6.21025 3.66475C6.31574 3.77024 6.375 3.91332 6.375 4.0625C6.375 4.17375 6.34201 4.28251 6.2802 4.37501C6.21839 4.46751 6.13054 4.53961 6.02776 4.58218C5.92498 4.62476 5.81188 4.6359 5.70276 4.61419C5.59365 4.59249 5.49342 4.53891 5.41475 4.46025C5.33608 4.38158 5.28251 4.28135 5.26081 4.17224C5.2391 4.06312 5.25024 3.95002 5.29282 3.84724C5.33539 3.74446 5.40749 3.65661 5.49999 3.5948ZM5.88425 4.23573C5.89555 4.23105 5.90641 4.22526 5.91667 4.2184C5.93724 4.20465 5.95479 4.18704 5.9684 4.16667C5.97519 4.15651 5.981 4.14566 5.98573 4.13425C5.9952 4.11139 6 4.087 6 4.0625C6 4.05028 5.99881 4.03802 5.9964 4.02592C5.98916 3.98955 5.97131 3.95614 5.94508 3.92992C5.91886 3.9037 5.88545 3.88584 5.84908 3.8786C5.83697 3.87619 5.82472 3.875 5.8125 3.875C5.788 3.875 5.76361 3.8798 5.74075 3.88927C5.72934 3.894 5.71849 3.89981 5.70833 3.9066C5.68796 3.92021 5.67035 3.93776 5.6566 3.95833C5.64974 3.96859 5.64395 3.97945 5.63927 3.99075C5.6299 4.01339 5.625 4.03776 5.625 4.0625C5.625 4.07487 5.62622 4.08712 5.6286 4.09908C5.63578 4.13518 5.6535 4.16867 5.67992 4.19508C5.70633 4.2215 5.73981 4.23922 5.77592 4.2464C5.78788 4.24878 5.80013 4.25 5.8125 4.25C5.83724 4.25 5.86161 4.2451 5.88425 4.23573Z" fill="#AEB6C9"/>
<path fill-rule="evenodd" clip-rule="evenodd" d="M1.66897 2.16897C2.81763 1.02031 4.37555 0.375 6 0.375C7.62445 0.375 9.18237 1.02031 10.331 2.16897C11.4797 3.31763 12.125 4.87555 12.125 6.5C12.125 8.12445 11.4797 9.68237 10.331 10.831C9.18237 11.9797 7.62445 12.625 6 12.625C4.37555 12.625 2.81763 11.9797 1.66897 10.831C0.52031 9.68237 -0.125 8.12445 -0.125 6.5C-0.125 4.87555 0.520311 3.31763 1.66897 2.16897ZM6 1.375C4.64077 1.375 3.3372 1.91495 2.37608 2.87608C1.41495 3.8372 0.875 5.14077 0.875 6.5C0.875 7.85923 1.41495 9.1628 2.37608 10.1239C3.3372 11.085 4.64076 11.625 6 11.625C7.35923 11.625 8.6628 11.085 9.62392 10.1239C10.585 9.1628 11.125 7.85923 11.125 6.5C11.125 5.14076 10.585 3.8372 9.62392 2.87608C8.6628 1.91495 7.35923 1.375 6 1.375Z" fill="#AEB6C9"/>
</g>
<defs>
<clipPath id="clip0_16362_34510">
<rect width="12" height="12" fill="white" transform="translate(0 0.5)"/>
</clipPath>
</defs>
</svg>
