<svg width="24" height="19" viewBox="0 0 24 19" fill="none" xmlns="http://www.w3.org/2000/svg">
<path d="M15.4314 17.2738V15.4993C15.4314 14.5581 15.0575 13.6554 14.392 12.9899C13.7264 12.3243 12.8238 11.9504 11.8825 11.9504H4.78474C3.84351 11.9504 2.94083 12.3243 2.27529 12.9899C1.60974 13.6554 1.23584 14.5581 1.23584 15.4993V17.2738" stroke="#0B1736" stroke-width="1.5" stroke-linecap="round" stroke-linejoin="round"/>
<path d="M8.33405 8.40175C10.2941 8.40175 11.883 6.81285 11.883 4.85285C11.883 2.89285 10.2941 1.30396 8.33405 1.30396C6.37405 1.30396 4.78516 2.89285 4.78516 4.85285C4.78516 6.81285 6.37405 8.40175 8.33405 8.40175Z" stroke="#0B1736" stroke-width="1.5" stroke-linecap="round" stroke-linejoin="round"/>
<g clip-path="url(#clip0_17388_124386)">
<path d="M15.9062 8.54321H22.0938" stroke="#0B1736" stroke-width="1.5" stroke-linecap="round" stroke-linejoin="round"/>
<path d="M19 5.44946V11.637" stroke="#0B1736" stroke-width="1.5" stroke-linecap="round" stroke-linejoin="round"/>
</g>
<defs>
<clipPath id="clip0_17388_124386">
<rect width="9" height="9.04321" fill="white" transform="translate(14.5 4)"/>
</clipPath>
</defs>
</svg>
