<svg width="16" height="23" viewBox="0 0 16 23" fill="none" xmlns="http://www.w3.org/2000/svg">
<path d="M5.20315 0.869141L7.05406 5.20967C7.77725 5.45295 8.48215 5.44217 9.21664 5.20981L10.8219 0.869187L5.20315 0.869141ZM3.67475 1.646L3.88943 2.23428C4.27779 3.29858 4.901 4.38678 5.24684 5.40697C5.59259 6.42716 5.6734 7.29988 5.09965 8.10913C4.4584 9.01358 3.29084 9.93894 2.258 11.0353C1.22515 12.1318 0.310059 13.4505 0.310059 15.1641C0.310059 19.4295 3.77239 22.9269 8.04021 22.9269C12.308 22.9269 15.803 19.4318 15.803 15.1641C15.803 13.46 14.9296 12.1184 13.9118 11.005C12.8941 9.89164 11.7159 8.96258 10.9948 8.08447C10.5645 7.56059 10.6159 6.48434 10.9535 5.32128C11.2911 4.15822 11.8566 2.9758 12.168 2.25847L12.4338 1.646H11.4687L9.92262 5.82664C9.70568 6.85616 9.69762 7.88539 10.3178 8.64055C11.1378 9.63908 12.314 10.5555 13.2653 11.5961C14.2166 12.6366 14.927 13.7574 14.927 15.164C14.927 18.954 11.8302 22.0509 8.04012 22.0509C4.25014 22.0509 1.18606 18.9565 1.18606 15.164C1.18606 13.7602 1.92453 12.6668 2.89559 11.636C3.86684 10.6052 5.05372 9.6883 5.81417 8.6158C6.56811 7.55244 6.46817 6.33767 6.10901 5.22655L4.97173 2.55969C4.96629 2.54727 4.96039 2.53447 4.955 2.52209H4.95579L4.5822 1.646H3.67475ZM8.04467 11.1257C6.66064 11.1257 5.40823 11.3402 4.54067 11.6648C4.10689 11.8271 3.77126 12.0187 3.56886 12.1978C3.38473 12.3607 3.32215 12.4885 3.31226 12.5924H3.29975C3.29975 13.3118 3.66575 13.9982 4.28018 14.5559C4.25651 14.5457 4.23214 14.5359 4.20879 14.5254C3.70597 14.3014 3.2862 14.039 2.9719 13.7308C2.86737 13.6283 2.77315 13.5184 2.69361 13.4017C2.34298 13.9708 2.11165 14.6012 2.11165 15.3302C2.11165 18.6006 4.77157 21.2895 8.04214 21.2895C11.3127 21.2895 14.0014 18.6007 14.0014 15.3303C14.0014 14.5933 13.7706 13.9482 13.4206 13.3648C13.3361 13.4952 13.2331 13.6175 13.1175 13.7308C12.8032 14.039 12.3834 14.3013 11.8806 14.5255C11.8598 14.5347 11.838 14.5435 11.817 14.5527C12.4292 13.9955 12.7938 13.3105 12.7938 12.5925H12.7772C12.7673 12.4886 12.7047 12.3608 12.5205 12.1979C12.3182 12.0188 11.9825 11.8271 11.5488 11.6649C10.6812 11.3403 9.42865 11.1259 8.04467 11.1259V11.1257Z" fill="#64708D"/>
</svg>
