<svg width="16" height="16" viewBox="0 0 16 16" fill="none" xmlns="http://www.w3.org/2000/svg">
<path d="M2.27572 7.16299C1.87882 7.00864 1.68037 6.93146 1.62243 6.82026C1.57221 6.72386 1.57214 6.60903 1.62225 6.51257C1.68006 6.4013 1.87842 6.32389 2.27513 6.16908L13.5336 1.77552C13.8918 1.63576 14.0708 1.56588 14.1852 1.60411C14.2846 1.6373 14.3626 1.71528 14.3958 1.81465C14.434 1.92907 14.3641 2.10813 14.2244 2.46625L9.8308 13.7247C9.67599 14.1215 9.59858 14.3198 9.48731 14.3776C9.39085 14.4277 9.27602 14.4277 9.17962 14.3774C9.06841 14.3195 8.99124 14.1211 8.83689 13.7242L7.08482 9.21883C7.05349 9.13826 7.03782 9.09798 7.01362 9.06406C6.99218 9.03399 6.96589 9.0077 6.93582 8.98625C6.9019 8.96206 6.86162 8.94639 6.78105 8.91506L2.27572 7.16299Z" stroke="#AEB6C9" stroke-width="1.5" stroke-linecap="round" stroke-linejoin="round"/>
</svg>
