<svg width="22" height="20" viewBox="0 0 22 20" fill="none" xmlns="http://www.w3.org/2000/svg">
<path fill-rule="evenodd" clip-rule="evenodd" d="M3.64817 0.771003C5.98283 0.427728 8.37093 0.25 10.8001 0.25C13.229 0.25 15.6169 0.427696 17.9514 0.770912C19.9297 1.06177 21.2998 2.79445 21.2998 4.74056V10.7595C21.2998 12.7056 19.9297 14.4382 17.9514 14.7291C16.0121 15.0142 14.0359 15.1851 12.03 15.2348C11.9264 15.2374 11.8316 15.2788 11.7636 15.3468L7.58013 19.5303C7.36564 19.7448 7.04305 19.809 6.76279 19.6929C6.48254 19.5768 6.2998 19.3033 6.2998 19V15.045C5.40882 14.9634 4.52472 14.8579 3.64816 14.729C1.66984 14.4381 0.299805 12.7054 0.299805 10.7593V4.74064C0.299805 2.79455 1.66985 1.06188 3.64817 0.771003Z" fill="#64708D"/>
</svg>
