<svg width="40" height="41" viewBox="0 0 40 41" fill="none" xmlns="http://www.w3.org/2000/svg">
<path d="M20.8861 2.29342L22.9661 6.38842H26.5111C26.7059 6.38451 26.8974 6.43925 27.0607 6.54552C27.224 6.6518 27.3515 6.8047 27.4268 6.98439C27.5021 7.16407 27.5216 7.36224 27.4829 7.55317C27.4441 7.7441 27.3489 7.91897 27.2095 8.05508L23.9545 11.2534L25.7578 15.3951C25.8373 15.5848 25.8552 15.7946 25.809 15.995C25.7628 16.1954 25.6548 16.3763 25.5003 16.512C25.3458 16.6478 25.1525 16.7315 24.9478 16.7515C24.7431 16.7715 24.5373 16.7267 24.3595 16.6234L20.0011 14.1667L15.6428 16.6234C15.465 16.7267 15.2592 16.7715 15.0545 16.7515C14.8498 16.7315 14.6565 16.6478 14.502 16.512C14.3475 16.3763 14.2395 16.1954 14.1933 15.995C14.1471 15.7946 14.165 15.5848 14.2445 15.3951L16.0478 11.2534L12.7928 8.05008C12.6534 7.91397 12.5582 7.7391 12.5194 7.54817C12.4807 7.35724 12.5002 7.15907 12.5755 6.97939C12.6508 6.7997 12.7783 6.6468 12.9416 6.54052C13.1049 6.43425 13.2964 6.37951 13.4911 6.38342H17.0361L19.1178 2.29342C19.2003 2.12966 19.3266 1.99203 19.4828 1.89586C19.6389 1.7997 19.8186 1.74878 20.002 1.74878C20.1853 1.74878 20.3651 1.7997 20.5212 1.89586C20.6773 1.99203 20.8037 2.12966 20.8861 2.29342V2.29342Z" stroke="#AEB6C9" stroke-width="2.5" stroke-linecap="round" stroke-linejoin="round"/>
<path d="M7.5 11C5.20784 11.6229 3.07637 12.7313 1.25 14.25V26.75C1.25 26.75 6.25 21.75 20 21.75C33.75 21.75 38.75 26.75 38.75 26.75V14.25C36.9237 12.7312 34.7922 11.6228 32.5 11" stroke="#AEB6C9" stroke-width="2.5" stroke-linecap="round" stroke-linejoin="round"/>
<path d="M13.75 26.75C13.75 38 6.25 39.25 6.25 39.25V36.75C6.25 36.087 5.98661 35.4511 5.51777 34.9822C5.04893 34.5134 4.41304 34.25 3.75 34.25H1.25C2.3032 33.8868 3.22339 33.2164 3.89182 32.3251C4.56026 31.4339 4.94625 30.3628 5 29.25" stroke="#AEB6C9" stroke-width="2.5" stroke-linecap="round" stroke-linejoin="round"/>
<path d="M26.25 26.75C26.25 38 33.75 39.25 33.75 39.25V36.75C33.75 36.087 34.0134 35.4511 34.4822 34.9822C34.9511 34.5134 35.587 34.25 36.25 34.25H38.75C37.6968 33.8868 36.7766 33.2164 36.1082 32.3251C35.4397 31.4339 35.0537 30.3628 35 29.25" stroke="#AEB6C9" stroke-width="2.5" stroke-linecap="round" stroke-linejoin="round"/>
</svg>
