<?xml version="1.0" standalone="no"?>
<!DOCTYPE svg PUBLIC "-//W3C//DTD SVG 20010904//EN"
 "http://www.w3.org/TR/2001/REC-SVG-20010904/DTD/svg10.dtd">
<svg version="1.0" xmlns="http://www.w3.org/2000/svg"
 width="432.000000pt" height="432.000000pt" viewBox="0 0 432.000000 432.000000"
 preserveAspectRatio="xMidYMid meet">

<g transform="translate(0.000000,432.000000) scale(0.100000,-0.100000)"
fill="#000000" stroke="none">
<path d="M1998 3945 c-343 -65 -614 -317 -710 -660 -22 -77 -22 -96 -23 -490
0 -359 2 -419 18 -478 84 -331 328 -581 652 -668 105 -29 325 -32 428 -6 328
82 578 325 669 652 22 77 22 96 23 490 0 359 -2 419 -18 478 -85 331 -332 584
-652 667 -105 28 -283 35 -387 15z m287 -360 c180 -46 316 -167 383 -341 l26
-69 4 -357 c4 -396 1 -424 -60 -547 -64 -131 -218 -249 -366 -280 -285 -59
-564 118 -637 404 -12 47 -15 127 -15 395 0 359 4 396 54 505 102 222 374 350
611 290z" fill="#64708D"/>
<path d="M1990 1254 c-244 -28 -338 -47 -519 -106 -154 -50 -383 -164 -511
-256 -95 -67 -259 -221 -318 -298 l-31 -41 164 -77 165 -78 64 65 c156 159
367 281 614 356 610 186 1309 39 1699 -356 l63 -64 164 77 165 78 -32 40 c-54
72 -200 211 -287 275 -336 249 -725 376 -1180 386 -102 2 -201 1 -220 -1z" fill="#64708D"/>
</g>
</svg>
