<svg width="48" height="37" viewBox="0 0 48 37" fill="none" xmlns="http://www.w3.org/2000/svg">
<path d="M1.5 1.54492H46.5V34.5449H1.5V1.54492Z" stroke="#8992B5" stroke-width="3" stroke-linecap="round" stroke-linejoin="round"/>
<path d="M24 1.54492V34.5449" stroke="#8992B5" stroke-width="3" stroke-linecap="round" stroke-linejoin="round"/>
<path d="M18 18.0449C18 19.6362 18.6321 21.1623 19.7574 22.2876C20.8826 23.4128 22.4087 24.0449 24 24.0449C25.5913 24.0449 27.1174 23.4128 28.2426 22.2876C29.3679 21.1623 30 19.6362 30 18.0449C30 16.4536 29.3679 14.9275 28.2426 13.8023C27.1174 12.6771 25.5913 12.0449 24 12.0449C22.4087 12.0449 20.8826 12.6771 19.7574 13.8023C18.6321 14.9275 18 16.4536 18 18.0449Z" stroke="#8992B5" stroke-width="3" stroke-linecap="round" stroke-linejoin="round"/>
<path d="M1.5 10.5449H7.5C8.29565 10.5449 9.05871 10.861 9.62132 11.4236C10.1839 11.9862 10.5 12.7493 10.5 13.5449V22.5449C10.5 23.3406 10.1839 24.1036 9.62132 24.6662C9.05871 25.2289 8.29565 25.5449 7.5 25.5449H1.5" stroke="#8992B5" stroke-width="3" stroke-linecap="round" stroke-linejoin="round"/>
<path d="M46.5 10.5449H40.5C39.7044 10.5449 38.9413 10.861 38.3787 11.4236C37.8161 11.9862 37.5 12.7493 37.5 13.5449V22.5449C37.5 23.3406 37.8161 24.1036 38.3787 24.6662C38.9413 25.2289 39.7044 25.5449 40.5 25.5449H46.5" stroke="#8992B5" stroke-width="3" stroke-linecap="round" stroke-linejoin="round"/>
</svg>
