<svg width="36" height="36" viewBox="0 0 36 36" fill="none" xmlns="http://www.w3.org/2000/svg">
<g clip-path="url(#clip0_21049_345201)">
<g filter="url(#filter0_d_21049_345201)">
<path d="M18 36C22.7739 36 27.3523 34.1036 30.7279 30.7279C34.1036 27.3523 36 22.7739 36 18C36 13.2261 34.1036 8.64773 30.7279 5.27208C27.3523 1.89642 22.7739 0 18 0C13.2261 0 8.64773 1.89642 5.27208 5.27208C1.89642 8.64773 0 13.2261 0 18C0 22.7739 1.89642 27.3523 5.27208 30.7279C8.64773 34.1036 13.2261 36 18 36Z" fill="#0B1736"/>
</g>
<g clip-path="url(#clip1_21049_345201)">
<path fill-rule="evenodd" clip-rule="evenodd" d="M9 18C9 17.3787 9.50368 16.875 10.125 16.875H25.875C26.4963 16.875 27 17.3787 27 18C27 18.6213 26.4963 19.125 25.875 19.125H10.125C9.50368 19.125 9 18.6213 9 18Z" fill="#4EE3F5"/>
<path fill-rule="evenodd" clip-rule="evenodd" d="M18 9C18.6213 9 19.125 9.50368 19.125 10.125V25.875C19.125 26.4963 18.6213 27 18 27C17.3787 27 16.875 26.4963 16.875 25.875V10.125C16.875 9.50368 17.3787 9 18 9Z" fill="#4EE3F5"/>
</g>
</g>
<defs>
<filter id="filter0_d_21049_345201" x="-20" y="-16" width="76" height="76" filterUnits="userSpaceOnUse" color-interpolation-filters="sRGB">
<feFlood flood-opacity="0" result="BackgroundImageFix"/>
<feColorMatrix in="SourceAlpha" type="matrix" values="0 0 0 0 0 0 0 0 0 0 0 0 0 0 0 0 0 0 127 0" result="hardAlpha"/>
<feOffset dy="4"/>
<feGaussianBlur stdDeviation="10"/>
<feComposite in2="hardAlpha" operator="out"/>
<feColorMatrix type="matrix" values="0 0 0 0 0 0 0 0 0 0 0 0 0 0 0 0 0 0 0.04 0"/>
<feBlend mode="normal" in2="BackgroundImageFix" result="effect1_dropShadow_21049_345201"/>
<feBlend mode="normal" in="SourceGraphic" in2="effect1_dropShadow_21049_345201" result="shape"/>
</filter>
<clipPath id="clip0_21049_345201">
<rect width="36" height="36" fill="white"/>
</clipPath>
<clipPath id="clip1_21049_345201">
<rect width="18" height="18" fill="white" transform="translate(9 9)"/>
</clipPath>
</defs>
</svg>
