<svg width="17" height="22" viewBox="0 0 17 22" fill="none" xmlns="http://www.w3.org/2000/svg">
<path fill-rule="evenodd" clip-rule="evenodd" d="M4.09994 5C4.09994 2.51472 6.11466 0.5 8.59994 0.5C11.0852 0.5 13.0999 2.51472 13.0999 5C13.0999 7.48528 11.0852 9.5 8.59994 9.5C6.11466 9.5 4.09994 7.48528 4.09994 5Z" fill="#64708D"/>
<path fill-rule="evenodd" clip-rule="evenodd" d="M0.351186 19.1053C0.428526 14.6156 4.09192 11 8.59994 11C13.1081 11 16.7715 14.6157 16.8487 19.1056C16.8538 19.4034 16.6823 19.676 16.4116 19.8002C14.0327 20.8918 11.3865 21.5 8.60026 21.5C5.8138 21.5 3.16737 20.8917 0.788262 19.7999C0.517592 19.6757 0.346057 19.4031 0.351186 19.1053Z" fill="#64708D"/>
</svg>
