<svg width="20" height="19" viewBox="0 0 20 19" fill="none" xmlns="http://www.w3.org/2000/svg">
<path d="M7.57496 6.93783C7.77088 6.38088 8.15759 5.91125 8.66659 5.6121C9.17559 5.31296 9.77404 5.20361 10.3559 5.30342C10.9378 5.40323 11.4656 5.70576 11.8459 6.15743C12.2261 6.6091 12.4342 7.18076 12.4333 7.77116C12.4333 9.43783 9.93329 10.2712 9.93329 10.2712V11.4375M9.99996 13.6045H10.0083M18.3333 9.43783C18.3333 14.0402 14.6023 17.7712 9.99996 17.7712C5.39759 17.7712 1.66663 14.0402 1.66663 9.43783C1.66663 4.83545 5.39759 1.10449 9.99996 1.10449C14.6023 1.10449 18.3333 4.83545 18.3333 9.43783Z" stroke="#0B1736" stroke-width="1.5" stroke-linecap="round" stroke-linejoin="round"/>
</svg>
