<svg width="16" height="16" viewBox="0 0 16 16" fill="none" xmlns="http://www.w3.org/2000/svg">
<path d="M0 8C0 10.1217 0.842855 12.1566 2.34315 13.6569C3.84344 15.1571 5.87827 16 8 16C10.1217 16 12.1566 15.1571 13.6569 13.6569C15.1571 12.1566 16 10.1217 16 8C16 5.87827 15.1571 3.84344 13.6569 2.34315C12.1566 0.842855 10.1217 0 8 0C5.87827 0 3.84344 0.842855 2.34315 2.34315C0.842855 3.84344 0 5.87827 0 8Z" fill="#19C201"/>
<path d="M4 8L5.83417 10.6868C5.90374 10.7802 5.99713 10.8573 6.10656 10.9118C6.21599 10.9662 6.3383 10.9963 6.4633 10.9997C6.58831 11.003 6.7124 10.9795 6.82525 10.9311C6.9381 10.8826 7.03645 10.8106 7.1121 10.7211L12 5" stroke="white" stroke-linecap="round" stroke-linejoin="round"/>
</svg>
