<svg width="19" height="18" viewBox="0 0 19 18" fill="none" xmlns="http://www.w3.org/2000/svg">
<path d="M6.07227 9.69726L7.47227 11.6841C7.52537 11.7634 7.59665 11.8289 7.68018 11.8751C7.7637 11.9214 7.85706 11.947 7.95248 11.9498C8.04789 11.9527 8.14261 11.9327 8.22875 11.8915C8.31488 11.8504 8.38995 11.7893 8.44769 11.7133L12.9294 6.04297" stroke="#01C294" stroke-width="1.5" stroke-linecap="round" stroke-linejoin="round"/>
<path d="M1.5 9C1.5 11.1217 2.34285 13.1566 3.84315 14.6569C5.34344 16.1571 7.37827 17 9.5 17C11.6217 17 13.6566 16.1571 15.1569 14.6569C16.6571 13.1566 17.5 11.1217 17.5 9C17.5 6.87827 16.6571 4.84344 15.1569 3.34315C13.6566 1.84285 11.6217 1 9.5 1C7.37827 1 5.34344 1.84285 3.84315 3.34315C2.34285 4.84344 1.5 6.87827 1.5 9V9Z" stroke="#01C294" stroke-width="1.5" stroke-linecap="round" stroke-linejoin="round"/>
</svg>
