<svg width="30" height="30" viewBox="0 0 30 30" fill="none" xmlns="http://www.w3.org/2000/svg">
<path d="M21.6447 17.2595C22.5504 17.2595 23.2846 16.5253 23.2846 15.6196C23.2846 14.7139 22.5504 13.9797 21.6447 13.9797C20.7391 13.9797 20.0049 14.7139 20.0049 15.6196C20.0049 16.5253 20.7391 17.2595 21.6447 17.2595Z" stroke="#0B1736" stroke-width="1.55" stroke-linecap="round" stroke-linejoin="round"/>
<path d="M24.324 19.3064C24.0076 18.8984 23.602 18.5682 23.1384 18.3411C22.6748 18.1139 22.1653 17.9958 21.6491 17.9958C21.1328 17.9958 20.6233 18.1139 20.1597 18.3411C19.6961 18.5682 19.2905 18.8984 18.9741 19.3064" stroke="#0B1736" stroke-width="1.55" stroke-linecap="round" stroke-linejoin="round"/>
<path d="M8.3552 17.2595C9.26087 17.2595 9.99507 16.5253 9.99507 15.6196C9.99507 14.7139 9.26087 13.9797 8.3552 13.9797C7.44953 13.9797 6.71533 14.7139 6.71533 15.6196C6.71533 16.5253 7.44953 17.2595 8.3552 17.2595Z" stroke="#0B1736" stroke-width="1.55" stroke-linecap="round" stroke-linejoin="round"/>
<path d="M5.67578 19.3055C5.99165 18.8974 6.39663 18.567 6.85976 18.3394C7.3229 18.1118 7.83193 17.9932 8.34795 17.9924C8.86398 17.9917 9.37334 18.109 9.83711 18.3353C10.3009 18.5615 10.7068 18.8908 11.0238 19.298" stroke="#0B1736" stroke-width="1.55" stroke-linecap="round" stroke-linejoin="round"/>
<path d="M19.1819 20.6002C19.1819 19.491 18.7413 18.4273 17.957 17.6429C17.1726 16.8586 16.1089 16.418 14.9996 16.418C13.8904 16.418 12.8267 16.8586 12.0423 17.6429C11.258 18.4273 10.8174 19.491 10.8174 20.6002" stroke="#0B1736" stroke-width="1.55" stroke-linecap="round" stroke-linejoin="round"/>
<path d="M14.9573 15.2762C16.3223 15.2762 17.4288 14.1697 17.4288 12.8047C17.4288 11.4398 16.3223 10.3333 14.9573 10.3333C13.5924 10.3333 12.4858 11.4398 12.4858 12.8047C12.4858 14.1697 13.5924 15.2762 14.9573 15.2762Z" stroke="#0B1736" stroke-width="1.55" stroke-linecap="round" stroke-linejoin="round"/>
<path d="M15 25.5C20.799 25.5 25.5 20.799 25.5 15C25.5 9.20101 20.799 4.5 15 4.5C9.20101 4.5 4.5 9.20101 4.5 15C4.5 20.799 9.20101 25.5 15 25.5Z" stroke="#0B1736" stroke-width="1.55" stroke-linecap="round" stroke-linejoin="round"/>
</svg>
