<svg width="40" height="42" viewBox="0 0 40 42" fill="none" xmlns="http://www.w3.org/2000/svg">
<circle cx="20" cy="20.6367" r="20" fill="#E1E5EF"/>
<path fill-rule="evenodd" clip-rule="evenodd" d="M15.951 13.1661C16.9178 12.1994 18.229 11.6562 19.5962 11.6562C20.9634 11.6562 22.2746 12.1994 23.2413 13.1661C24.2081 14.1329 24.7512 15.4441 24.7512 16.8113C24.7512 18.1785 24.2081 19.4897 23.2413 20.4564C22.2746 21.4232 20.9634 21.9663 19.5962 21.9663C18.229 21.9663 16.9178 21.4232 15.951 20.4564C14.9843 19.4897 14.4412 18.1785 14.4412 16.8113C14.4412 15.4441 14.9843 14.1329 15.951 13.1661ZM19.5962 13.2184C18.6433 13.2184 17.7294 13.5969 17.0556 14.2707C16.3818 14.9445 16.0033 15.8584 16.0033 16.8113C16.0033 17.7642 16.3818 18.678 17.0556 19.3518C17.7294 20.0256 18.6433 20.4042 19.5962 20.4042C20.5491 20.4042 21.463 20.0256 22.1368 19.3518C22.8106 18.678 23.1891 17.7642 23.1891 16.8113C23.1891 15.8584 22.8106 14.9445 22.1368 14.2707C21.463 13.5969 20.5491 13.2184 19.5962 13.2184Z" fill="#8992B5"/>
<path fill-rule="evenodd" clip-rule="evenodd" d="M19.5964 23.8414C17.6492 23.8414 15.7817 24.615 14.4048 25.9919C13.0279 27.3687 12.2544 29.2362 12.2544 31.1834C12.2544 31.6148 11.9047 31.9645 11.4733 31.9645C11.042 31.9645 10.6923 31.6148 10.6923 31.1834C10.6923 28.8219 11.6304 26.5571 13.3002 24.8873C14.9701 23.2174 17.2349 22.2793 19.5964 22.2793C21.9579 22.2793 24.2227 23.2174 25.8926 24.8873C27.5624 26.5571 28.5005 28.8219 28.5005 31.1834C28.5005 31.6148 28.1509 31.9645 27.7195 31.9645C27.2881 31.9645 26.9384 31.6148 26.9384 31.1834C26.9384 29.2362 26.1649 27.3687 24.788 25.9919C23.4111 24.615 21.5436 23.8414 19.5964 23.8414Z" fill="#8992B5"/>
</svg>
